<svg width="19" height="19" viewBox="0 0 19 19" fill="none" xmlns="http://www.w3.org/2000/svg">
<path d="M14.5 0.750205C15.051 0.750768 15.5952 0.872757 16.0937 1.1075C16.5922 1.34223 17.0329 1.68395 17.3843 2.10834C17.7358 2.53273 17.9894 3.02936 18.1271 3.56289C18.2649 4.09643 18.2833 4.65376 18.1812 5.19524C18.0791 5.73672 17.8589 6.24904 17.5363 6.69575C17.2136 7.14246 16.7965 7.51258 16.3146 7.77979C15.8327 8.04699 15.2979 8.20472 14.7481 8.24173C14.1983 8.27875 13.6471 8.19415 13.1337 7.99396L8.875 13.6677V17.0002H10.75C10.9158 17.0002 11.0747 17.0661 11.1919 17.1833C11.3092 17.3005 11.375 17.4594 11.375 17.6252C11.375 17.791 11.3092 17.9499 11.1919 18.0671C11.0747 18.1844 10.9158 18.2502 10.75 18.2502H5.75C5.58424 18.2502 5.42527 18.1844 5.30806 18.0671C5.19085 17.9499 5.125 17.791 5.125 17.6252C5.125 17.4594 5.19085 17.3005 5.30806 17.1833C5.42527 17.0661 5.58424 17.0002 5.75 17.0002H7.625V13.6677L1 4.84271C0.837722 4.62634 0.75 4.36317 0.75 4.09271V3.88396C0.75 3.7182 0.815848 3.55922 0.933058 3.44201C1.05027 3.3248 1.20924 3.25896 1.375 3.25896H2.7775L1.4975 1.62146C1.39539 1.49084 1.34935 1.325 1.36951 1.16044C1.38967 0.995878 1.47438 0.846064 1.605 0.743955C1.73562 0.641847 1.90145 0.595809 2.06601 0.615969C2.23058 0.636129 2.38039 0.720836 2.4825 0.851455L4.3625 3.25896H10.9587C11.2163 2.52537 11.6954 1.88993 12.3298 1.44049C12.9642 0.991058 13.7225 0.749843 14.5 0.750205ZM12.33 3.25896H15.125C15.2908 3.25896 15.4497 3.3248 15.5669 3.44201C15.6842 3.55922 15.75 3.7182 15.75 3.88396V4.09146C15.75 4.36192 15.6623 4.62508 15.5 4.84145L13.9288 6.93521C14.3802 7.04098 14.8522 7.01911 15.292 6.87204C15.7317 6.72496 16.1219 6.45848 16.4189 6.10238C16.7159 5.74628 16.908 5.3146 16.9738 4.85558C17.0395 4.39657 16.9763 3.92832 16.7912 3.50316C16.6061 3.07801 16.3064 2.71272 15.9256 2.44811C15.5448 2.18351 15.098 2.03002 14.6349 2.00482C14.1719 1.97961 13.711 2.08367 13.3038 2.30537C12.8965 2.52706 12.5589 2.85766 12.3287 3.26021V3.25896H12.33ZM5.34 4.50896L7.86875 7.74646C7.96508 7.8775 8.00653 8.04093 7.9843 8.20205C7.96207 8.36316 7.87791 8.50927 7.7497 8.60933C7.62149 8.7094 7.45931 8.75554 7.29763 8.73797C7.13594 8.72039 6.98747 8.64048 6.88375 8.51521L3.75375 4.50896H2.3125L8.25 12.4177L14.1875 4.50896H5.34Z" fill="white"/>
</svg>
