<svg width="21" height="21" viewBox="0 0 21 21" fill="none" xmlns="http://www.w3.org/2000/svg">
<path d="M17.1722 10.6659C17.4131 9.33811 17.0491 8.22311 16.0866 7.44217C15.6634 7.09874 15.1981 6.92342 14.7059 6.91467C14.6294 6.41999 14.1881 6.36686 13.9703 6.34311C13.6987 6.31342 13.6253 6.3053 13.59 6.04405C13.5225 5.54811 13.2562 5.47405 13.1028 5.47405C12.8991 5.47405 12.7272 5.60655 12.535 5.79249C12.5222 5.77936 12.5097 5.76561 12.4966 5.75249C12.5662 5.33499 12.5903 4.96311 12.4588 4.81624C12.1659 4.48936 12.1453 4.61717 11.8734 4.04592C11.7181 3.7203 11.9709 3.00124 11.1412 3.15811C10.9266 3.19842 10.6825 3.31624 10.4384 3.46717C10.3833 3.39779 10.3296 3.32736 10.2772 3.25592C9.19844 1.76905 8.03969 3.48905 7.00875 5.09342C6.83574 5.06417 6.66045 5.05057 6.485 5.0528C6.3175 5.0528 6.16469 5.0628 6.06531 5.07999C5.8175 5.1228 5.69719 5.33061 5.60094 5.49749C5.45188 5.75436 5.39906 5.78811 5.23938 5.74999C5.16733 5.73184 5.09336 5.7224 5.01906 5.72186C4.42313 5.72186 4.37906 6.33655 4.35563 6.66686C4.34375 6.83186 4.33156 7.0028 4.28813 7.12436C4.2725 7.16686 4.26125 7.17874 4.25031 7.17124C4.21531 7.17124 4.17875 7.16686 4.14188 7.16342C4.08243 7.15645 4.02266 7.15259 3.96281 7.15186C3.74969 7.15186 3.57344 7.22499 3.43906 7.36905C3.21125 7.61311 3.26562 8.0703 3.40469 8.51842C3.30375 8.52467 3.22562 8.5503 3.18844 8.60561C3.00562 8.87999 3.29844 9.69624 2.60312 9.62092C1.9075 9.54624 2.05406 9.97749 1.83469 10.2128C1.615 10.4478 1.45875 10.8397 1.50062 10.9575C1.51469 10.9984 1.56 11.2115 1.62656 11.459C1.31938 11.9831 1.125 12.3556 1.125 13.2881C1.125 14.6547 2.80406 16.8256 5.31969 17.199C5.84438 17.2769 6.52406 17.4009 7.24344 17.5312C9.15594 17.879 11.5359 18.3125 13.2272 18.3125C13.7994 18.3125 14.2509 18.2644 14.6081 18.165C16.5628 17.6215 17.8328 16.4515 17.8859 16.4015L18.0969 16.2047C19.0647 15.6191 19.7422 14.9547 19.8697 14.3231C19.9634 13.8575 18.7628 12.3987 17.1722 10.6659ZM14.715 7.58655L14.7169 7.54311C15.0597 7.55436 15.3884 7.68186 15.6941 7.92999C16.8859 8.89655 16.7062 10.3234 16.3322 11.3709C15.7209 11.2359 15.9741 10.4572 15.5569 9.89874C15.4759 9.78967 15.3916 9.72311 15.3063 9.68092L15.3103 9.25374C15.3222 8.23624 15.3253 7.9628 14.7994 7.92842C14.7766 7.92686 14.7506 7.9253 14.7113 7.91967C14.6997 7.84874 14.7084 7.69967 14.715 7.58655ZM12.2434 7.16999C12.2478 7.08155 12.2631 6.97249 12.2838 6.85217C12.4812 6.73061 12.6628 6.54936 12.8306 6.37999C12.8769 6.33374 12.9331 6.27686 12.9872 6.22561C13.12 6.88124 13.6259 6.93624 13.9028 6.96655C13.9706 6.97405 14.0734 6.9853 14.0875 6.98624C14.0875 6.98624 14.0922 6.99655 14.0947 7.02405C14.1119 7.20624 14.1019 7.38061 14.0919 7.54936C14.0706 7.9128 14.0381 8.46186 14.6194 8.54061C14.6425 8.54405 14.6647 8.54655 14.6853 8.54811C14.6919 8.69061 14.6897 8.9453 14.6859 9.24592C14.6828 9.52999 14.6788 9.89499 14.6788 10.3647L14.6862 10.4353C14.6903 10.4503 14.6931 10.4684 14.6956 10.4875C14.2059 10.1134 12.8091 8.47311 12.2172 7.50592C12.2294 7.39936 12.2381 7.2853 12.2434 7.16999ZM3.89469 7.79811C3.90531 7.78655 3.91219 7.77874 3.96281 7.77874C4.00156 7.77874 4.04063 7.78311 4.07906 7.78717C4.1375 7.79311 4.195 7.79842 4.25031 7.79842C4.55094 7.79842 4.76688 7.63874 4.87531 7.33717C4.94844 7.13374 4.96438 6.90967 4.97875 6.71186C4.98656 6.6003 4.99938 6.42061 5.02719 6.34936C5.04156 6.34999 5.06344 6.35249 5.095 6.3603C5.17656 6.37967 5.25656 6.38936 5.33187 6.38936C5.80719 6.38936 6.01562 6.02842 6.14094 5.8128C6.16219 5.77499 6.19313 5.72249 6.215 5.69186C6.37572 5.67887 6.53715 5.67699 6.69812 5.68624C6.09469 6.30436 5.26656 7.19217 4.97094 7.69936C4.92094 7.78499 4.86594 7.88249 4.80781 7.98561C4.70187 8.17342 4.52781 8.48186 4.37063 8.71967C4.28604 8.69077 4.20081 8.66378 4.115 8.63874C3.95969 8.24499 3.86594 7.88936 3.89469 7.79811ZM14.4416 17.5606C14.1437 17.6437 13.7353 17.6853 13.2272 17.6853C11.5922 17.6853 9.2425 17.2578 7.35469 16.9141C6.63 16.7822 5.945 16.6578 5.41094 16.5784C3.29313 16.264 1.84969 14.4187 1.74719 13.2337C1.74719 13.2337 2.27469 13.3397 2.49594 13.2675C3.10281 13.0684 3.72219 12.3103 4.5975 11.1756C5.08969 10.5381 6.275 8.97717 6.65375 8.25624C7.89969 5.88436 8.48625 5.69999 8.63688 5.69999C8.66375 5.69999 8.73469 5.69999 8.835 5.83811C8.98719 6.04811 9.12156 6.32155 9.29187 6.6678C9.56188 7.21811 9.9325 7.97186 10.6253 8.96842C11.1737 9.75749 11.9403 10.4425 12.6822 11.105C13.3075 11.6637 13.8978 12.1919 14.3597 12.7697C14.7347 13.2397 15.0013 13.789 15.2584 14.3203C15.6688 15.1672 16.0903 16.0372 16.9334 16.3575C16.4128 16.7275 15.5372 17.2559 14.4416 17.5606ZM19.3838 14.2884C19.2781 14.7522 18.4131 15.4147 17.6378 15.8553C16.7362 15.8362 16.3562 15.1547 15.8197 14.0462C15.5469 13.4837 15.2656 12.9025 14.8469 12.3781C14.3522 11.7587 13.7141 11.1884 13.0969 10.6369C12.3822 9.99842 11.6438 9.33874 11.1372 8.60999C10.4716 7.65217 10.1281 6.9528 9.85188 6.39061C9.66844 6.01749 9.52344 5.7228 9.34 5.46905C9.10219 5.14155 8.82625 5.0728 8.63688 5.0728C8.20031 5.0728 7.4625 5.37217 6.10125 7.96342C5.73531 8.65999 4.48 10.3044 4.10406 10.7915C3.51094 11.5606 2.77219 12.5172 2.30063 12.6706C2.24188 12.6706 1.78906 12.4915 1.65781 12.4822C1.73312 12.2934 1.82969 12.1612 1.855 12.1197C1.94844 12.3094 2.05406 12.4203 2.16375 12.3284C2.41719 12.1172 4.08375 10.2903 4.65062 9.38124C4.84906 9.15874 5.06437 8.8028 5.35094 8.29405C5.4075 8.19405 5.46125 8.09936 5.51 8.01561C5.73375 7.63186 6.42313 6.8478 7.40063 5.86405C7.59938 5.66467 7.53687 5.46061 7.51281 5.4028C7.48873 5.34511 7.45136 5.29393 7.40375 5.25342C7.90281 4.48561 8.48906 3.70311 8.79906 3.47061C9.28719 3.10436 9.33156 2.89249 10.0269 3.65686L10.0775 3.71186C9.51875 4.12374 9.04344 4.60842 9.04344 4.60842C8.5375 5.07936 9.72625 5.56061 10.4481 5.86999C10.9241 6.07342 11.2006 6.75905 11.4319 7.3078C11.4459 7.3428 11.4612 7.37905 11.4775 7.4153C11.5759 7.64624 11.6684 7.84249 11.7666 7.95249C12.3325 8.87655 13.3134 10.0128 13.9634 10.6472C14.2353 11.0634 14.8269 11.579 15.4466 12.0147C16.6175 12.8378 16.9469 14.5619 17.2028 14.9147C17.4591 15.2675 17.6784 14.7578 17.825 14.5619C17.9712 14.3659 18.4469 13.5822 18.2275 13.3862C18.0078 13.1903 17.3859 13.1903 17.3859 12.6416C17.3859 12.2434 17.2744 11.8006 16.9297 11.5606C16.9672 11.4559 17 11.3525 17.0303 11.25C17.3741 11.7212 17.6959 12.1706 17.9225 12.4409C18.5091 13.1381 19.5259 13.6609 19.3838 14.2884Z" fill="white"/>
<path d="M13.7078 13.3939C13.6641 13.3492 13.3534 13.6189 12.9266 14.057C12.6033 13.5754 12.2772 13.0957 11.9481 12.6179C12.2744 12.2017 12.4612 11.922 12.4266 11.8873C12.3928 11.8533 12.1566 12.0551 11.8041 12.4073L11.485 11.9461C11.2231 11.5686 10.9598 11.1921 10.695 10.8167C10.8991 10.5626 11.0109 10.4004 10.9938 10.372C10.9759 10.3436 10.8287 10.4561 10.5922 10.6701C10.2897 10.2418 9.98488 9.81516 9.67781 9.39013C9.99344 9.00075 10.1669 8.75982 10.1444 8.73263C10.1219 8.70544 9.90875 8.89169 9.56344 9.23325C8.72656 8.08138 8.1575 7.34794 8.1125 7.38357C8.06719 7.41919 8.56594 8.22669 9.36437 9.432C8.87156 9.92982 8.18313 10.6579 7.41281 11.4992C7.16013 11.1517 6.90166 10.8084 6.6375 10.4695C6.7945 10.3012 6.9492 10.1308 7.10156 9.95825C7.8725 9.08513 8.4425 8.32232 8.37563 8.2545C8.30906 8.187 7.62969 8.83982 6.85844 9.71325C6.71303 9.87775 6.56999 10.0443 6.42938 10.2129C6.275 10.0279 6.17688 9.9295 6.15719 9.94544C6.13656 9.96169 6.2025 10.1004 6.33313 10.3289C5.84625 10.9201 5.53313 11.3664 5.58438 11.4176C5.6325 11.4664 6.00594 11.1339 6.50187 10.6136C6.68125 10.9079 6.92312 11.2864 7.20937 11.7211L6.9525 12.0039C6.73063 12.2489 6.51625 12.4883 6.30875 12.7201C5.92875 12.2264 5.66188 11.9267 5.62031 11.9604C5.57656 11.9945 5.77875 12.372 6.12531 12.927C5.83149 13.2578 5.54023 13.5908 5.25156 13.9261C4.69344 13.152 4.23281 12.607 4.16844 12.6579C4.10344 12.7098 4.475 13.3676 5.02656 14.1883C4.35594 14.9758 3.945 15.4992 3.97875 15.5414C4.01281 15.5823 4.4775 15.1398 5.17875 14.4123L5.24656 14.5111C5.91562 15.4754 6.51812 16.2104 6.59187 16.1511C6.66562 16.0926 6.18281 15.2629 5.51437 14.2976L5.41906 14.1611C5.68969 13.8767 5.98906 13.5573 6.30719 13.2139C6.55553 13.5982 6.81067 13.978 7.0725 14.3533C6.61 14.8892 6.33 15.2504 6.35688 15.2951C6.38406 15.3395 6.71656 15.0517 7.21875 14.5626C7.99937 15.6704 8.65625 16.4911 8.72438 16.4364C8.79375 16.3814 8.24031 15.4554 7.46437 14.3211C7.73125 14.0564 8.03312 13.7483 8.355 13.4129L8.37375 13.4401C8.73889 13.9669 9.10964 14.4897 9.48594 15.0086C9.06375 15.5345 8.80938 15.8989 8.84938 15.9395C8.88875 15.9789 9.20125 15.6992 9.65219 15.2364C10.3319 16.1636 10.8103 16.7601 10.8575 16.7223C10.9056 16.6842 10.5009 16.007 9.85625 15.0242C10.1559 14.7078 10.4499 14.386 10.7381 14.0592L10.8375 14.2033C11.1213 14.6127 11.4098 15.019 11.7028 15.422C11.1947 16.0354 10.8644 16.5042 10.9162 16.5564C10.9669 16.6076 11.3694 16.2448 11.8962 15.6864C12.5053 16.5129 12.9419 17.0464 12.9903 17.0076C13.0397 16.9686 12.6781 16.3508 12.1006 15.4667C12.2091 15.3492 12.3194 15.2261 12.4328 15.0973C12.5928 14.9166 12.75 14.7335 12.9044 14.5479C13.8681 15.8845 14.5416 16.7604 14.5903 16.722C14.6394 16.6829 14.035 15.7154 13.0978 14.3117C13.5034 13.8073 13.7531 13.4398 13.7078 13.3939ZM7.30375 14.0883C7.04694 13.7175 6.78356 13.3513 6.51375 12.9898C6.72656 12.7586 6.94625 12.5179 7.17125 12.2695C7.25 12.1833 7.32625 12.0979 7.40313 12.0129C7.6539 12.3897 7.90776 12.7644 8.16469 13.137C7.87391 13.4506 7.58691 13.7677 7.30375 14.0883ZM8.40062 12.8826C8.14174 12.512 7.87975 12.1436 7.61469 11.7773C8.37469 10.9289 9.03437 10.1686 9.48906 9.61982C9.77334 10.0468 10.0599 10.4722 10.3488 10.8961C10.1069 11.1248 9.81062 11.4179 9.47812 11.7567C9.17844 11.3767 8.98344 11.1601 8.95187 11.1854C8.91937 11.2108 9.0625 11.482 9.32469 11.9136C9.09062 12.1539 8.84281 12.4123 8.58594 12.6858C8.52344 12.7517 8.46219 12.8173 8.40062 12.8826ZM10.5166 13.7901C10.2338 14.11 9.95648 14.4346 9.68469 14.7639C9.32728 14.2259 8.96424 13.6917 8.59562 13.1614C8.65219 13.102 8.70781 13.0423 8.76531 12.982C9.02344 12.7079 9.26906 12.442 9.49781 12.1911C9.83492 12.7226 10.1815 13.248 10.5375 13.767C10.5304 13.7746 10.5235 13.7823 10.5166 13.7901ZM10.7678 13.5083C10.4107 12.9997 10.0442 12.4978 9.66844 12.0029C9.94276 11.7006 10.212 11.3937 10.4759 11.0823C10.8351 11.6082 11.197 12.1321 11.5616 12.6542C11.3262 12.8983 11.0553 13.1889 10.7678 13.5083ZM12.1903 14.8523C12.0934 14.9626 11.9997 15.0708 11.9097 15.1764C11.6021 14.712 11.2888 14.2516 10.9697 13.7951C11.2278 13.4986 11.4811 13.1978 11.7294 12.8929C12.0543 13.3573 12.3818 13.8198 12.7119 14.2804C12.535 14.4683 12.3611 14.6589 12.1903 14.8523Z" fill="white"/>
</svg>
