<svg width="21" height="20" viewBox="0 0 21 20" fill="none" xmlns="http://www.w3.org/2000/svg">
<g clip-path="url(#clip0_212_384)">
<path d="M2.50937 5.39707L1.51788 1.87535L4.9478 2.95326M10.0072 16.4754L10.0072 4.33591M16.0939 10.4057L3.92063 10.4057M2.50937 5.39707C1.26084 7.25558 0.75112 9.51117 1.07959 11.7241C1.40806 13.937 2.55118 15.9486 4.28607 17.3667C6.02097 18.7849 8.22329 19.5078 10.4637 19.3947C12.704 19.2816 14.8219 18.3405 16.4042 16.7549C17.9866 15.1693 18.9202 13.0528 19.0228 10.8181C19.1255 8.58344 18.3899 6.39072 16.9595 4.66747C15.5291 2.94422 13.5065 1.81395 11.2859 1.49703C9.06525 1.18012 6.80587 1.69926 4.94822 2.95326" stroke="#5B6D5B" stroke-linecap="round" stroke-linejoin="round"/>
</g>
<defs>
<clipPath id="clip0_212_384">
<rect width="20" height="20" fill="white" transform="matrix(-1 0 0 1 20.5 0)"/>
</clipPath>
</defs>
</svg>
