<svg width="131" height="130" viewBox="0 0 131 130" fill="none" xmlns="http://www.w3.org/2000/svg">
<path d="M59 110.703C36.25 112.125 15.9375 112.734 8.62501 107.453C-1.73436 99.7344 10.0469 68.4531 18.5781 57.4844L121.969 31.4844C134.766 55.0469 118.313 63.7812 95.9688 79.2188C75.6563 93.4375 67.9375 109.891 59 110.703Z" fill="#FBD399"/>
<path d="M63.2656 90.3906C45.5937 107.25 -6.00001 119.031 7.40624 75.9687C13.2969 56.875 24.6719 54.2343 26.2969 50.7812C30.7656 40.8281 43.3594 36.1562 47.8281 34.7343C58.3906 31.6875 52.5 22.5468 79.7187 23.7656C82.1562 23.9687 87.4375 19.5 93.3281 18.6875C109.375 16.25 119.734 26 121.969 31.6875C132.734 58.5 103.484 52.4062 63.2656 90.3906Z" fill="#FBBF67"/>
<path d="M15.7343 107.859C-1.73443 105.625 8.01557 68.4532 20.6093 59.5157C33.2031 50.3751 50.8749 55.6564 60.2187 71.0939C69.5624 86.7345 69.7656 107.25 54.5312 108.875C41.7343 110.094 30.1562 109.688 15.7343 107.859Z" fill="#FFF3E3"/>
<path d="M29.7501 50.7808C38.6876 48.9527 46.4063 43.0621 62.4532 52.6089C74.0313 62.1558 76.2657 70.0777 76.6719 64.1871C78.5001 56.0621 62.6563 41.6402 47.8282 42.8589C33.2032 41.4371 19.5938 55.8589 29.7501 50.7808Z" fill="#D3976E"/>
<path d="M27.7187 50.9841C28.125 49.7654 43.7656 40.6248 54.7344 45.4998C65.0937 49.9685 68.3437 54.031 74.0312 62.3591C74.8437 63.5779 75.25 64.5935 75.8593 65.406C76.0625 65.406 76.0625 64.9998 75.8593 63.781C76.875 57.4841 65.9062 43.8748 52.7031 42.8591C40.1094 40.2185 25.0781 49.9685 27.7187 50.9841Z" fill="#372A16"/>
<path d="M55.1407 33.5157C62.0469 32.0938 67.7344 27.6251 79.7188 34.9376C88.4532 42.2501 90.0782 48.1407 90.4844 43.672C91.9063 37.5782 79.9219 26.6095 68.75 27.6251C57.7813 26.4063 47.4219 37.172 55.1407 33.5157Z" fill="#D3976E"/>
<path d="M53.5156 33.5153C53.7188 32.4996 65.7031 25.7965 73.8281 29.4528C81.5469 32.7028 84.1875 35.9528 88.4531 42.2496C89.0625 43.2653 89.4688 43.8746 89.875 44.484C89.875 44.484 90.0781 44.0778 89.875 43.2653C90.6875 38.3903 82.3594 28.234 72.4063 27.6246C62.8594 25.3903 51.4844 32.9059 53.5156 33.5153Z" fill="#372A16"/>
<path d="M84.1875 23.766C89.2656 23.3598 93.7343 20.516 102.062 26.8129C107.75 32.7035 108.562 37.1723 109.172 33.9223C110.594 29.4535 102.672 20.7191 94.5468 20.516C86.625 19.0941 78.2968 26.0004 84.1875 23.766Z" fill="#D3976E"/>
<path d="M82.9687 23.7654C83.1718 23.156 92.3124 19.0935 97.9999 22.3435C103.484 25.3904 104.906 27.8279 107.547 32.7029C107.953 33.5154 108.156 34.1248 108.359 34.531C108.359 34.531 108.562 34.3279 108.562 33.7185C109.578 30.2654 104.297 22.1404 96.9843 20.9216C90.2812 18.6873 81.7499 23.156 82.9687 23.7654Z" fill="#372A16"/>
<path d="M14.9219 95.875L17.1562 93.4375L14.9219 91L12.6875 93.4375L14.9219 95.875ZM25.2812 65.2031L27.5156 62.9688L25.2812 60.5312L23.0469 62.9688L25.2812 65.2031ZM16.1406 79.8281L18.375 77.5938L16.1406 75.1563L13.9062 77.5938L16.1406 79.8281ZM21.8281 82.2656L24.0625 79.8281L21.8281 77.5938L19.5937 79.8281L21.8281 82.2656ZM34.0156 100.547L36.25 98.1094L34.0156 95.875L31.7812 98.1094L34.0156 100.547ZM40.3125 95.875L42.5469 93.4375L40.3125 91L38.0781 93.4375L40.3125 95.875ZM54.7344 76.375L56.9688 73.9375L54.7344 71.7031L52.5 73.9375L54.7344 76.375ZM43.7656 68.6562L46 66.2187L43.7656 63.9844L41.5312 66.2187L43.7656 68.6562ZM59.8125 98.1094L62.0469 95.875L59.8125 93.4375L57.5781 95.875L59.8125 98.1094ZM57.5781 92.625L59.8125 90.1875L57.5781 87.9531L55.3438 90.1875L57.5781 92.625ZM48.0312 78.8125L51.4844 75.1563L48.0312 71.7031L44.7812 75.1563L48.0312 78.8125ZM39.7031 105.219L43.1562 101.766L39.7031 98.1094L36.25 101.766L39.7031 105.219ZM12.6875 89.375L15.9375 85.7188L12.6875 82.2656L9.23438 85.7188L12.6875 89.375Z" fill="#EDE0D1"/>
</svg>
