<svg width="51" height="50" viewBox="0 0 51 50" fill="none" xmlns="http://www.w3.org/2000/svg">
<path d="M19.25 9.375H13V3.125H9.875V9.375H3.625V12.5H9.875V18.75H13V12.5H19.25V9.375Z" fill="white"/>
<path d="M47.2484 25.9469L42.5609 15.0094C42.4406 14.7282 42.2404 14.4886 41.9852 14.3203C41.7299 14.152 41.4308 14.0623 41.125 14.0625H36.4375V10.9375C36.4375 10.5231 36.2729 10.1257 35.9799 9.83265C35.6868 9.53962 35.2894 9.375 34.875 9.375H23.9375V12.5H33.3125V32.1187C32.6005 32.5322 31.9774 33.0825 31.4792 33.7379C30.9809 34.3933 30.6173 35.1409 30.4094 35.9375H20.5906C20.2507 34.5965 19.4734 33.4071 18.3816 32.5575C17.2898 31.708 15.9459 31.2467 14.5625 31.2467C13.1791 31.2467 11.8352 31.708 10.7434 32.5575C9.65161 33.4071 8.87427 34.5965 8.53438 35.9375H6.75V21.875H3.625V37.5C3.625 37.9144 3.78962 38.3118 4.08265 38.6049C4.37567 38.8979 4.7731 39.0625 5.1875 39.0625H8.53438C8.87427 40.4035 9.65161 41.5929 10.7434 42.4425C11.8352 43.292 13.1791 43.7533 14.5625 43.7533C15.9459 43.7533 17.2898 43.292 18.3816 42.4425C19.4734 41.5929 20.2507 40.4035 20.5906 39.0625H30.4094C30.7493 40.4035 31.5266 41.5929 32.6184 42.4425C33.7102 43.292 35.0541 43.7533 36.4375 43.7533C37.8209 43.7533 39.1648 43.292 40.2566 42.4425C41.3484 41.5929 42.1257 40.4035 42.4656 39.0625H45.8125C46.2269 39.0625 46.6243 38.8979 46.9174 38.6049C47.2104 38.3118 47.375 37.9144 47.375 37.5V26.5625C47.3751 26.3508 47.332 26.1414 47.2484 25.9469ZM14.5625 40.625C13.9444 40.625 13.3402 40.4417 12.8263 40.0983C12.3124 39.755 11.9119 39.2669 11.6754 38.6959C11.4389 38.1249 11.377 37.4965 11.4975 36.8903C11.6181 36.2842 11.9158 35.7273 12.3528 35.2903C12.7898 34.8533 13.3467 34.5556 13.9528 34.435C14.559 34.3145 15.1874 34.3764 15.7584 34.6129C16.3294 34.8494 16.8175 35.2499 17.1608 35.7638C17.5042 36.2777 17.6875 36.8819 17.6875 37.5C17.6863 38.3284 17.3566 39.1226 16.7708 39.7083C16.1851 40.2941 15.3909 40.6238 14.5625 40.625ZM36.4375 17.1875H40.0938L43.4437 25H36.4375V17.1875ZM36.4375 40.625C35.8194 40.625 35.2152 40.4417 34.7013 40.0983C34.1874 39.755 33.7869 39.2669 33.5504 38.6959C33.3139 38.1249 33.252 37.4965 33.3725 36.8903C33.4931 36.2842 33.7908 35.7273 34.2278 35.2903C34.6648 34.8533 35.2217 34.5556 35.8278 34.435C36.434 34.3145 37.0624 34.3764 37.6334 34.6129C38.2044 34.8494 38.6925 35.2499 39.0358 35.7638C39.3792 36.2777 39.5625 36.8819 39.5625 37.5C39.5617 38.3285 39.2322 39.1229 38.6463 39.7088C38.0604 40.2947 37.266 40.6242 36.4375 40.625ZM44.25 35.9375H42.4656C42.1214 34.5991 41.3429 33.4128 40.2519 32.5645C39.161 31.7162 37.8194 31.2538 36.4375 31.25V28.125H44.25V35.9375Z" fill="white"/>
</svg>
