<svg width="130" height="131" viewBox="0 0 130 131" fill="none" xmlns="http://www.w3.org/2000/svg">
<g clip-path="url(#clip0_53_990)">
<path d="M96.7241 88.717C96.7241 99.3668 75.075 108.01 48.3641 108.01C21.6572 108.01 0 99.3668 0 88.717C0 78.0529 21.6572 69.416 48.3641 69.416C75.075 69.416 96.7241 78.0529 96.7241 88.717Z" fill="#A6A8AB"/>
<path d="M80.8883 110.926C107.597 110.926 129.248 102.289 129.248 91.6336C129.248 80.9785 107.597 72.3408 80.8883 72.3408C54.1798 72.3408 32.5283 80.9785 32.5283 91.6336C32.5283 102.289 54.1798 110.926 80.8883 110.926Z" fill="#A6A8AB"/>
<path d="M66.3752 104.317C45.9205 104.317 27.5783 99.8564 15.1471 92.7998C15.0232 93.7525 14.948 94.7153 14.948 95.6923C14.948 114.116 37.6147 129.052 65.5728 129.052C93.535 129.052 116.202 114.114 116.202 95.6923C116.202 94.9895 116.161 94.2989 116.09 93.6103C103.718 100.194 86.0194 104.317 66.3711 104.317" fill="#D0D2D3"/>
<path d="M40.355 101.768C30.5948 99.7647 21.9721 96.6813 15.1512 92.8057C15.0273 93.7583 14.9521 94.7211 14.9521 95.6982C14.9521 114.122 37.6189 129.057 65.577 129.057C67.7809 129.057 69.9462 128.952 72.0811 128.773C55.1039 124.369 42.6157 114.116 40.355 101.768Z" fill="#B6B6B7"/>
<path d="M122.119 79.5926C122.119 92.0462 96.8014 102.139 65.5892 102.139C34.3668 102.139 9.05542 92.032 9.05542 79.5926C9.05542 67.1349 34.3668 57.0254 65.5892 57.0254C96.8014 57.0254 122.119 67.1268 122.119 79.5926Z" fill="#D0D2D3"/>
<path d="M65.1828 98.0187C91.8924 98.0187 113.545 89.3783 113.545 78.7198C113.545 68.0613 91.8924 59.4209 65.1828 59.4209C38.4732 59.4209 16.8208 68.0613 16.8208 78.7198C16.8208 89.3783 38.4732 98.0187 65.1828 98.0187Z" fill="#A6A8AB"/>
<path d="M27.95 63.3653C24.4482 66.4588 20.7777 69.3249 17.1458 72.2621C13.9141 74.8662 18.0416 79.6518 21.4297 77.8054C24.5903 76.0931 27.7266 74.4132 31.0721 73.0848C29.7416 71.3501 28.405 69.6215 27.0766 67.8868C26.1998 69.3081 25.2173 70.6613 24.1374 71.9351C21.8116 74.8642 24.7752 79.8184 28.4213 77.4824C30.8344 75.9428 33.2089 74.4031 35.7257 73.0381L30.8933 68.2098C30.03 69.652 29.3557 71.1165 28.6671 72.6542C27.3772 75.506 30.3042 79.7899 33.4994 77.4865C36.0953 75.6218 38.5511 73.7206 40.885 71.5309C44.0213 68.6079 40.0563 64.4215 36.6052 65.9835C36.4102 66.1948 36.2274 66.406 36.0405 66.6193C35.618 68.2342 35.1935 69.8449 34.775 71.4517C36.1712 70.5683 37.711 69.9359 39.325 69.5829C42.7924 68.5795 42.6055 63.8629 39.325 62.7721C39.0061 62.6645 38.6913 62.5568 38.3744 62.4532V69.2681C39.9507 68.6729 41.4903 68.3235 43.1438 67.9985C42.2317 65.8434 41.3278 63.6862 40.4178 61.5371C34.6877 64.3687 16.5283 68.9024 22.9532 78.7621C23.9647 76.9807 24.9844 75.2156 26.0041 73.4403C25.3642 73.3773 24.7264 73.3143 24.0866 73.2473C20.15 72.4145 17.9319 77.5007 21.3627 79.7107C22.5611 80.5699 23.8307 81.3154 25.1692 81.937C25.7664 79.7392 26.3596 77.5454 26.9527 75.3476C25.4678 75.4431 23.9911 75.5467 22.5103 75.6665C17.936 76.0139 17.9867 82.3168 22.5103 82.7332C27.1802 83.1578 33.2557 84.4273 37.6167 82.0142C39.0041 81.2382 39.7821 80.5557 40.818 79.4142C41.5472 78.6078 42.315 77.846 43.095 77.0904C46.6375 73.6718 42.1485 78.0939 42.1627 75.3862L47.4825 72.3373C46.9483 72.0204 46.4202 71.6974 45.89 71.3826C45.2928 73.5764 44.7038 75.7701 44.1025 77.9679C45.3132 78.4453 46.5157 78.9206 47.7202 79.3878L49.5077 72.8024C47.6074 72.581 45.6879 72.581 43.7877 72.8024C41.0922 73.1051 39.4266 75.5649 40.7347 78.1223C43.0564 82.6499 48.3417 84.4029 53.0238 85.4571C57.4621 86.4728 59.341 79.6579 54.9027 78.6443C52.1361 78.0167 48.2788 77.3463 46.8549 74.5615C45.8311 76.3267 44.8236 78.0999 43.7978 79.8753C45.6984 79.6599 47.6173 79.6599 49.5178 79.8753C53.233 80.2896 54.0333 75.0084 51.3013 73.2879C48.9288 71.801 46.8833 71.2099 44.1107 70.9012C40.4524 70.4909 39.5302 75.8026 42.3313 77.4804L43.9197 78.4371C46.2414 79.8346 49.2192 78.037 49.2355 75.3842C49.2761 69.9749 45.3985 67.0398 40.5336 70.109C38.5186 71.3867 36.8469 73.2798 35.2707 75.0328C32.8169 77.7526 25.7685 75.957 22.5205 75.6645V82.7312C24.0006 82.619 25.4814 82.5161 26.9628 82.4224C30.2474 82.201 32.0775 77.5657 28.7503 75.8351C27.4134 75.2148 26.1382 74.4694 24.9417 73.6089C24.0297 75.766 23.1217 77.9151 22.2239 80.0703C23.4708 80.3406 24.7407 80.4909 26.0163 80.5192C28.6122 80.576 30.5236 77.4317 29.0632 75.1953C28.1755 73.8262 42.3049 68.4779 44.001 67.6451C47.7913 65.7784 45.0003 60.4484 41.273 61.1857C39.6297 61.5087 38.09 61.8662 36.5077 62.4553C33.2496 63.6781 33.0566 68.1184 36.5077 69.2701C36.8307 69.3757 37.1435 69.4834 37.4624 69.5829V62.7721C35.1711 63.4465 33.2191 64.0498 31.2163 65.3478C29.7619 66.2984 28.7361 68.6079 29.9508 70.1842C32.8758 73.9928 35.9328 74.0212 40.1883 72.0874C38.7583 70.2431 37.3283 68.3906 35.9044 66.5401C34.0257 68.2829 32.0364 69.9025 29.9488 71.3887L34.7852 76.2251C35.4778 74.6895 36.1421 73.2209 37.0114 71.7787C38.8822 68.6607 35.2239 65.2888 32.171 66.9423C29.6542 68.3113 27.2817 69.8551 24.8707 71.3887L29.1464 76.936C30.5642 75.1445 31.9414 73.3631 33.1988 71.4557C34.8116 69.0081 32.108 65.1081 29.2033 66.2659C25.2871 67.8299 21.58 69.6946 17.8771 71.6974C19.303 73.554 20.735 75.4085 22.165 77.257C25.7908 74.3279 29.4613 71.4517 32.9611 68.3621C36.3838 65.3437 31.3646 60.3712 27.9602 63.3693" fill="#00A551"/>
<path d="M37.4807 82.3391C39.6378 84.7237 42.2582 85.6195 45.3863 86.105C45.6991 83.7914 46.0119 81.4758 46.3288 79.1622C45.6592 79.1372 45.0036 78.9638 44.4093 78.6544C44.0903 80.972 43.7836 83.2856 43.4708 85.6053C47.8136 85.6073 55.9041 86.0928 57.2569 80.3931C58.8758 73.5783 53.8058 68.0228 47.905 65.6381L46.9605 72.5789H47.5983C51.7603 72.5789 52.1747 66.9503 48.5367 65.6381C46.4263 64.8744 44.4011 64.1573 42.4024 63.1376C41.8052 65.3273 41.2161 67.5251 40.6149 69.725C42.5933 69.8266 50.5741 71.8436 49.916 74.7706C49.5361 76.4444 50.1861 77.7911 51.5349 78.7661C55.9447 81.9287 60.2957 85.5626 65.7191 86.7448C69.7328 87.6223 71.7438 82.5584 68.443 80.2855C67.7956 79.8439 67.0817 79.5085 66.3285 79.2922V86.105L68.5527 85.4692C72.9219 84.2241 71.0572 77.397 66.6697 78.6564C65.9324 78.8737 65.1889 79.0891 64.4435 79.2922C61.0188 80.2733 61.1427 85.0691 64.4435 86.105C64.5897 86.2005 64.7339 86.2959 64.8721 86.3914C65.78 84.2322 66.6921 82.0831 67.598 79.928C62.8347 78.8819 58.9774 75.4409 55.1078 72.6642L56.7288 76.6576C58.7032 67.8745 47.8035 63.0381 40.6128 62.6522C37.1455 62.4694 35.7196 67.6572 38.8294 69.2415C41.3685 70.5273 43.9928 71.4861 46.6639 72.453C46.9747 70.1373 47.2855 67.8258 47.6044 65.5061H46.9666C42.7071 65.5061 42.5121 71.0351 46.0282 72.453C47.5252 73.0583 52.8024 77.5372 49.3797 78.372C47.5455 78.823 45.3517 78.5447 43.4769 78.5325C39.1889 78.5305 39.0549 84.0372 42.5344 85.4692C43.7613 85.9811 45.0227 86.105 46.3369 86.233C50.2857 86.6291 51.2017 79.9056 47.2753 79.2922C45.3842 78.9956 43.8811 78.8859 42.4816 77.3483C39.4185 73.9601 34.4317 78.9712 37.4888 82.3391" fill="#00A551"/>
<path d="M105.991 79.6826C102.956 80.9907 99.9131 82.2582 96.9231 83.6659C93.7787 85.1527 95.2636 90.5213 98.7066 90.2552C102.103 89.9851 105.363 89.2477 108.712 88.6688L105.276 82.7721C101.016 86.5279 92.7956 85.7134 87.4758 85.7215C83.5636 85.7256 82.5439 91.8559 86.5312 92.6643C90.1814 93.3976 93.4558 93.3326 97.108 92.6643C100.478 92.0407 100.52 86.4284 97.108 85.8495C90.3825 84.7018 83.7911 85.3295 77.0189 85.6707C69.7551 86.0485 62.4711 84.781 55.2073 84.6348C50.5822 84.5474 50.7569 91.279 55.2073 91.7015C59.2394 92.0854 63.0276 92.1931 67.0191 91.5776C70.397 91.0616 70.4295 85.2421 67.0191 84.7648C59.5786 83.7126 47.903 81.8195 41.8356 87.4826C43.2616 87.2957 44.6895 87.117 46.1216 86.9281C42.6298 85.4473 39.4895 83.6923 35.6362 83.5521C33.152 83.4607 30.9583 86.7066 32.5873 88.8659C33.3084 89.8368 34.0376 90.7976 34.7526 91.7645C36.3695 90.1537 37.9803 88.547 39.5891 86.9281C34.3383 84.0762 29.8837 80.814 23.6742 81.009C20.2414 81.1207 18.7403 85.819 21.8908 87.5943C33.4872 94.1451 47.3281 97.6612 60.647 97.5068C65.2173 97.4499 65.1889 90.6087 60.647 90.4401C58.2237 90.3406 55.8147 90.1659 53.3894 90.0745C49.4487 89.9201 48.5164 96.2556 52.455 97.0173C63.1556 99.0891 73.7161 98.2441 84.4208 96.6577C88.4528 96.0565 87.3519 89.7109 83.4844 89.7109H80.5776V96.7776C85.087 96.7654 90.1936 96.932 94.2845 94.6793C95.8303 93.8302 104.205 85.4148 104.896 85.7885C106.598 86.7006 108.735 86.2232 109.732 84.519C110.585 83.0585 111.505 81.6691 112.267 80.162H106.173C107.11 81.2385 107.835 82.4512 108.347 83.7877C110.195 82.3598 112.05 80.9359 113.898 79.5079C111.461 76.5077 108.664 74.8949 105.093 73.5238C103.553 72.9348 101.92 73.922 101.097 75.1468C100.47 75.9187 99.9944 76.7596 99.645 77.6879C101.497 77.4502 103.344 77.2085 105.192 76.9688C102.657 74.7548 100.833 72.0695 97.955 70.2556C95.0564 68.4376 91.0366 72.1527 93.1186 75.0879C93.8742 76.1563 94.5791 77.0318 95.487 77.9804C96.6306 76.0162 97.7762 74.0438 98.9259 72.0776C95.5175 71.3321 92.4239 70.2596 88.9159 70.1418C86.6734 70.0585 84.8331 72.4676 85.5075 74.6085C85.8934 75.9735 86.3769 77.306 86.9558 78.602L89.4278 74.247C88.5402 74.576 87.8841 74.9335 87.1487 75.5206C85.9056 76.5138 85.8894 78.5268 86.5922 79.8004C87.1488 80.7327 87.6322 81.7017 88.0425 82.7051C89.3709 80.9704 90.7095 79.2418 92.0319 77.5112C88.012 76.8165 85.1845 72.4737 82.2412 69.9062C79.3792 67.4179 76.3059 66.2581 72.6111 65.7827C68.5486 65.2668 67.9778 71.6551 71.6726 72.7235C76.5294 74.1291 81.3495 74.5963 86.3891 74.6634C91 74.7304 90.87 67.9379 86.3891 67.5946C79.1903 67.0462 77.7339 71.3159 73.3769 75.8821L79.4076 78.3806C79.1233 75.6749 84.6422 74.1332 86.448 73.5056C90.9309 71.9232 94.5608 72.6646 98.737 74.9071C102.757 77.0602 106.322 70.9584 102.306 68.7931C95.6902 65.2424 90.1265 64.7102 83.0883 67.1945C78.2701 68.8906 71.7052 72.3518 72.343 78.3684C72.6477 81.2385 76.0561 83.2941 78.3737 80.8648C81.0103 78.1063 81.9569 74.3099 86.3911 74.6471V67.5784C81.9833 67.5215 77.8009 67.1254 73.5536 65.8965L72.6131 72.8393C79.9297 73.7737 82.7491 83.0362 90.1652 84.3118C93.342 84.8562 95.4931 82.047 94.1566 79.1138C93.7501 78.1127 93.2658 77.1449 92.7083 76.2193C92.5194 77.6412 92.3366 79.0691 92.1558 80.4971C91.8714 80.6799 91.5992 80.8627 91.325 81.0435C92.9642 80.4463 94.5527 78.5877 93.7889 76.6966C93.2015 75.4065 92.7172 74.0719 92.3406 72.7052C91.2011 74.1921 90.0697 75.6891 88.9281 77.1781C91.7434 77.2796 94.3394 78.2729 97.0491 78.862C100.478 79.6135 103.013 75.5937 100.488 72.9591C100.067 72.4798 99.6511 71.9882 99.2347 71.4966C97.6158 73.1095 96.0091 74.7223 94.3942 76.3351C96.6834 77.7671 98.1845 80.1802 100.202 81.9454C101.772 83.3145 104.731 83.4282 105.747 81.2304C106.096 80.3082 106.58 79.4591 107.203 78.6913C105.875 79.2398 104.54 79.774 103.212 80.3224C105.708 81.2751 107.24 82.441 108.903 84.4804C111.579 87.7771 116.104 83.5866 114.449 80.1985C113.941 78.8732 113.205 77.6474 112.273 76.5768C110.829 74.5943 107.492 73.9991 106.18 76.5768C105.41 78.082 104.502 79.4754 103.645 80.9359C105.251 80.5073 106.87 80.0909 108.481 79.6663C104.528 77.5396 101.384 78.3643 98.2637 81.4782C96.0822 83.6415 94.7781 85.9388 92.1862 87.769C88.9119 90.0704 84.3984 89.6865 80.6041 89.6946C76.05 89.7027 76.05 96.7613 80.6041 96.7613H83.5087L82.5683 89.8226C73.1819 91.212 63.7487 91.992 54.3623 90.1801C54.0434 92.4917 53.7326 94.8093 53.4137 97.1188C55.8391 97.2184 58.2461 97.3931 60.6714 97.4906V90.4238C48.5936 90.5579 36.0019 87.4176 25.4759 81.4782C24.8869 83.6801 24.2897 85.8718 23.6966 88.0635C28.5106 87.9152 32.0287 90.8321 36.0486 93.0218C38.9066 94.5737 43.1437 91.2018 40.8809 88.1834C40.1598 87.2124 39.4367 86.2496 38.7075 85.2787C37.6878 87.054 36.6762 88.8273 35.6586 90.5965C38.1712 90.6879 40.3244 92.061 42.573 93.0157C44.1005 93.6637 45.5711 93.6556 46.8528 92.4652C50.4481 89.1137 60.7344 90.9418 65.1747 91.5613V84.7485C61.8475 85.2482 58.567 84.9313 55.2378 84.6185V91.6852C61.7784 91.8132 68.2723 92.6521 74.817 92.772C81.6725 92.902 88.4162 91.4781 95.2514 92.6481V85.8332C93.0128 86.3918 90.6711 86.3918 88.4325 85.8332L87.4961 92.772C95.0564 92.7638 104.276 93.0624 110.291 87.7487C113.21 85.1893 110.019 81.3035 106.858 81.8459C104.144 82.3029 101.487 82.9529 98.733 83.1702C99.3241 85.3681 99.9233 87.5537 100.518 89.7515C103.502 88.3499 106.549 87.0743 109.58 85.7723C113.75 83.9706 110.143 77.8849 106.013 79.6785" fill="#F6921E"/>
<path d="M61.3436 98.1626C65.8022 98.386 70.2568 98.386 74.7154 98.1626C78.4813 97.9656 79.7833 91.7926 75.6579 91.2177C70.5472 90.5068 65.5036 90.8156 60.3727 90.844C60.6835 93.1637 61.0024 95.4692 61.3132 97.7868C64.9918 97.2485 68.4632 96.7915 71.8818 95.2437C76.0316 93.3587 72.4322 87.2771 68.3149 89.1499C65.5727 90.389 62.3755 90.5515 59.4322 90.9781C55.4124 91.5712 56.4829 97.9493 60.3707 97.927C64.8171 97.8884 69.359 97.4232 73.783 98.0367C74.0918 95.7231 74.4046 93.4115 74.7174 91.0938C70.2631 91.3234 65.8 91.3234 61.3457 91.0938C56.7855 90.8643 56.8099 97.9391 61.3457 98.1707M94.4327 77.6043C88.668 79.3309 82.9054 80.3648 76.8908 80.637C73.1107 80.8076 71.8411 87.0232 75.9504 87.5798C77.065 87.7444 78.1943 87.7866 79.3182 87.7057C83.0679 87.4518 84.4207 81.4332 80.2668 80.771C79.9991 80.7245 79.7309 80.6805 79.4624 80.639C80.283 81.4576 81.1138 82.2843 81.9304 83.1131C81.8369 84.4029 81.8674 84.4151 82.0035 83.1496C81.9454 82.6097 81.8654 82.0723 81.7638 81.5388C80.9757 77.0518 74.175 78.9571 74.949 83.4117C74.6422 81.6506 74.9774 84.6243 75.1196 84.9899C75.7411 86.5601 76.7263 87.3157 78.3858 87.5818C78.6986 85.2662 79.0155 82.9546 79.3202 80.639C78.8232 80.6662 78.3273 80.7103 77.8333 80.771C77.5246 83.0806 77.2097 85.3941 76.8929 87.7057C83.4776 87.4149 90.001 86.3089 96.3136 84.4131C100.669 83.1192 98.806 76.2942 94.4327 77.6043ZM61.0999 66.5584C66.9438 66.5421 72.7776 66.3674 78.6093 66.8001C78.2944 64.4865 77.9836 62.1688 77.6668 59.8593C75.4263 60.3976 73.1229 60.292 70.8255 60.4646C66.9296 60.751 65.9241 66.2456 69.8911 67.4054C71.9102 68.0006 74.1507 68.1712 76.1007 68.9918C76.379 66.8387 76.6511 64.6835 76.9416 62.5345C72.9401 64.0152 68.9121 65.3538 64.7866 66.4243C62.2943 67.0702 61.2441 70.5416 63.2266 72.3312C64.1102 73.1295 64.8821 73.9176 65.8876 74.5838V68.4901C65.4001 68.811 64.9146 69.136 64.4291 69.4631C62.666 70.6371 61.8819 73.4524 63.7121 75.0165C64.7602 75.9143 65.6397 76.8324 66.8565 77.5129L67.7015 71.0454C66.8118 71.4273 66.1252 71.7848 65.4122 72.4449C63.8441 73.8831 64.0818 77.0579 66.1252 77.9943C66.9052 78.3477 67.604 78.6565 68.4368 78.8312C72.8811 79.7554 74.7722 72.9466 70.3177 72.0204C70.1065 71.9757 69.9033 71.931 69.6982 71.8924L70.4111 77.4377C70.139 77.5799 69.8607 77.7242 69.5844 77.8643C72.2149 76.7634 73.3788 73.0421 70.4274 71.3988C69.753 71.021 69.298 70.5091 68.713 70.0054C68.4693 71.8559 68.2438 73.7043 67.996 75.5507C68.4855 75.2359 68.969 74.9109 69.4565 74.5818C71.7213 73.0746 71.7335 69.9851 69.4565 68.4677C69.0599 68.0728 68.6507 67.6908 68.2296 67.3221C67.7035 69.2904 67.1855 71.2587 66.6635 73.229C70.789 72.1626 74.8291 70.8159 78.8185 69.3331C81.3027 68.421 82.7916 64.1981 79.6635 62.8798C77.0858 61.789 74.4351 61.3584 71.768 60.5743C71.4572 62.892 71.1363 65.2076 70.8235 67.5171C73.7668 67.3059 76.6633 67.3587 79.5497 66.662C83.6122 65.687 82.4199 60.0015 78.6072 59.7212C72.7755 59.2885 66.9418 59.4592 61.0979 59.4754C56.5438 59.5038 56.5438 66.5665 61.0979 66.5584M86.6611 67.4013C92.2451 69.1706 97.4958 71.7056 102.592 74.5859C103.496 72.4327 104.404 70.2776 105.312 68.1265C103.872 67.7304 102.456 67.6613 100.971 67.511C99.393 67.3445 97.9976 68.7196 97.5608 70.1009C98.2047 68.027 100.63 68.1123 98.9462 68.161C98.0443 68.1631 97.1343 68.0696 96.2466 67.9904C94.6602 67.8401 93.0819 67.5659 91.4894 67.511C88.3552 67.3993 86.8785 71.4191 88.991 73.5438C90.6282 75.1952 92.3751 75.6807 94.646 75.7904C99.2102 76.0321 99.1838 68.9654 94.646 68.7237C94.4347 68.6607 94.2093 68.6038 93.9939 68.5429C93.1571 70.5518 92.3304 72.5627 91.4935 74.5798C95.3671 74.7077 102.755 77.1981 104.38 71.9818C103.244 72.8512 102.113 73.7145 100.975 74.5798C101.804 74.6265 102.627 74.7504 103.441 74.9373C107.299 75.9996 109.677 70.4665 106.159 68.4759C100.549 65.3031 94.6968 62.5284 88.5441 60.5824C84.1729 59.2093 82.3244 66.0404 86.6611 67.4013ZM106.498 80.4501C105.728 81.3215 104.924 82.136 104.034 82.8815C104.252 82.7312 104.185 82.7779 103.837 83.0318C103.628 83.1801 103.417 83.3182 103.204 83.4604C102.985 83.5953 102.763 83.7246 102.537 83.8484C102.596 83.8077 101.479 84.3704 101.983 84.1571C100.208 84.8985 98.9583 86.4667 99.5108 88.506C99.974 90.1798 102.08 91.7215 103.86 90.974C106.864 89.7167 109.336 87.8845 111.505 85.447C112.783 84.0068 112.919 81.8679 111.505 80.4481C110.195 79.1542 107.776 79.0099 106.498 80.4481M32.4166 88.9184C34.2874 88.9204 36.1419 89.1723 38.0025 89.4099C39.92 89.6476 41.5329 87.6163 41.5329 85.8756C41.5329 83.761 39.9119 82.5809 38.0025 82.3371C36.1419 82.1076 34.2874 81.8699 32.4166 81.8517C30.4808 81.8354 28.8782 83.4767 28.8782 85.3921C28.8782 87.3299 30.4808 88.9021 32.4166 88.9184Z" fill="#A87C4F"/>
<path d="M47.4236 11.2306C36.6762 16.199 32.1892 25.2604 37.2267 35.3476C40.233 41.3662 45.0125 46.5499 48.9003 52.1237C53.8606 59.2493 53.7651 65.7676 49.8245 73.2954C48.2889 76.2184 53.1923 78.7798 54.7361 75.8385C60.3058 65.2212 59.1276 56.8585 52.1015 47.1573C44.5534 36.7309 32.8087 23.6618 50.2978 15.5815C53.558 14.0743 50.6756 9.72337 47.4256 11.2245" fill="#E6E7E8"/>
<path d="M66.0664 81.7063C71.1243 76.0534 72.2821 70.3354 69.7003 63.4738C66.8729 55.9663 61.291 49.8624 61.1996 41.6318C61.1204 34.817 64.933 28.1768 67.5858 21.9348C70.3077 15.5221 71.6686 9.10541 70.2082 2.30885C69.5297 -0.878182 64.0535 0.470568 64.7177 3.64744C67.3279 15.8959 57.6672 26.5376 55.8046 38.3006C54.9413 43.7788 56.1194 49.1373 58.6544 54.1524C62.6397 62.0276 69.2677 70.0612 62.0364 78.1435C59.7858 80.6643 63.7854 84.2373 66.0664 81.7023" fill="#E6E7E8"/>
<path d="M83.6063 73.8893C83.5392 68.3541 82.7166 63.2963 80.6853 58.0577C79.7306 55.6121 78.1036 53.4671 77.218 50.9869C76.3283 48.5027 78.0975 45.5615 79.3792 43.4916C83.6835 36.5569 88.2192 31.1193 83.5941 23.2279C81.8939 20.3394 76.9864 22.8886 78.6642 25.7649C83.1817 33.4613 73.6897 39.6932 71.7214 46.8919C70.7017 50.601 72.1744 53.9201 73.9944 57.2086C76.9356 62.5508 77.8314 67.9946 77.8985 73.8893C77.9513 77.1372 83.6469 77.1372 83.6063 73.8893Z" fill="#E6E7E8"/>
</g>
<defs>
<clipPath id="clip0_53_990">
<rect width="130" height="130" fill="white" transform="translate(0 0.5)"/>
</clipPath>
</defs>
</svg>
