<svg width="16" height="17" viewBox="0 0 16 17" fill="none" xmlns="http://www.w3.org/2000/svg">
<path d="M9.2893 8.49998L15.7729 0.68228C15.8815 0.552359 15.7902 0.35498 15.6222 0.35498H13.6512C13.5351 0.35498 13.424 0.407448 13.3474 0.497393L7.99999 6.94593L2.65259 0.497393C2.57849 0.407448 2.46735 0.35498 2.34879 0.35498H0.377785C0.20983 0.35498 0.118442 0.552359 0.227119 0.68228L6.71069 8.49998L0.227119 16.3177C0.202775 16.3466 0.187157 16.3821 0.182119 16.4197C0.177081 16.4574 0.182835 16.4957 0.198699 16.5302C0.214562 16.5647 0.239868 16.5938 0.271613 16.6141C0.303357 16.6345 0.340206 16.6452 0.377785 16.645H2.34879C2.46488 16.645 2.57602 16.5925 2.65259 16.5026L7.99999 10.054L13.3474 16.5026C13.4215 16.5925 13.5326 16.645 13.6512 16.645H15.6222C15.7902 16.645 15.8815 16.4476 15.7729 16.3177L9.2893 8.49998Z" fill="white"/>
</svg>
