<svg width="44" height="46" viewBox="0 0 44 46" fill="none" xmlns="http://www.w3.org/2000/svg">
<path d="M41.8025 6.1775C41.065 5.5375 37.0375 1.85 36.285 1.2C35.5375 0.5525 34.395 0.5 33.53 0.5H9.46999C8.60749 0.5 7.46499 0.5525 6.71499 1.2C5.96249 1.85 1.93499 5.54 1.19749 6.1775C0.454994 6.8175 -0.160006 7.785 0.0374937 9.1575C0.234994 10.535 4.76249 43.31 4.87999 44.09C4.94201 44.4776 5.13819 44.8311 5.43427 45.0888C5.73036 45.3465 6.10755 45.492 6.49999 45.5H36.5C36.8928 45.4919 37.2703 45.3461 37.5664 45.0878C37.8626 44.8296 38.0585 44.4756 38.12 44.0875C38.2375 43.31 42.765 10.5325 42.965 9.155C43.16 7.785 42.545 6.8175 41.8025 6.1775ZM21.5 27.9325C13.38 27.9325 11.6425 16.4425 11.2825 14.075H15.875C16.565 17.5275 18.135 23.435 21.5 23.435C24.865 23.435 26.4375 17.5275 27.125 14.075H31.72C31.3575 16.4425 29.62 27.9325 21.5 27.9325ZM4.42499 8.015L8.99999 3H34L38.575 8.015H4.42499Z" fill="white"/>
</svg>
