<svg width="372" height="11" viewBox="0 0 372 11" fill="none" xmlns="http://www.w3.org/2000/svg">
<path d="M0.166667 5.5C0.166667 8.44552 2.55448 10.8333 5.5 10.8333C8.44552 10.8333 10.8333 8.44552 10.8333 5.5C10.8333 2.55448 8.44552 0.166667 5.5 0.166667C2.55448 0.166667 0.166667 2.55448 0.166667 5.5ZM361.167 5.5C361.167 8.44552 363.554 10.8333 366.5 10.8333C369.445 10.8333 371.833 8.44552 371.833 5.5C371.833 2.55448 369.445 0.166667 366.5 0.166667C363.554 0.166667 361.167 2.55448 361.167 5.5ZM5.5 6.5H366.5V4.5H5.5V6.5Z" fill="white"/>
</svg>
