<svg width="131" height="130" viewBox="0 0 131 130" fill="none" xmlns="http://www.w3.org/2000/svg">
<path d="M34.1781 40.3106C34.1781 40.3106 28.257 31.5661 24.225 30.0731C20.1828 28.5802 15.9883 29.5552 14.1297 27.1278C12.2508 24.67 11.2758 20.4755 11.875 17.7841C12.4742 15.0927 14.0078 13.0513 15.3484 12.7567C16.689 12.4622 20.2437 14.3411 20.2437 14.3411C20.2437 14.3411 20.0914 9.78095 20.5382 8.13564C20.9851 6.49032 22.864 4.77392 23.8289 4.1747C26.957 2.2247 28.6125 3.72782 28.6125 3.72782C28.6125 3.72782 27.414 14.1989 31.3039 18.8302C35.1937 23.4614 50.6007 39.4677 47.6047 39.62C44.6187 39.7622 34.1781 40.3106 34.1781 40.3106Z" fill="#DDBCA8"/>
<path d="M34.4625 33.4442C34.4625 33.4442 27.8507 27.2387 25.7687 26.152C23.6867 25.0653 19.3601 25.6238 17.8468 24.8317C15.8054 23.7653 13.5914 21.4801 13.4086 17.7731C13.2257 14.066 14.2617 12.2481 17.9281 12.0754C20.914 11.9332 22.7218 13.0707 23.5343 12.2582C24.3468 11.4457 23.6257 6.01213 24.0726 5.10822C24.5296 4.20432 25.789 2.48791 29.1406 3.02619C32.4922 3.56447 33.9343 6.66213 34.1171 7.46447C34.8687 10.7246 34.3203 16.8488 35.1429 18.3012C36.4429 20.5863 45.2382 30.3567 45.2382 30.3567C45.2382 30.3567 34.5437 33.2613 34.4625 33.4442Z" fill="#FFEBCA"/>
<path d="M34.1985 31.2C19.9188 41.275 15.0946 55.2398 15.6024 65.6094C16.0391 74.5266 19.2078 79.3305 24.3977 83.6266C29.5875 87.9227 32.8274 89.1211 34.9805 92.0258C37.1336 94.9305 40.15 106.945 46.8531 113.262C53.5563 119.58 74.9656 132.316 99.9094 109.952C125.584 86.9273 117.683 63.832 108.197 55.2297C99.036 46.9219 91.0735 46.3531 86.9907 41.3867C82.3086 35.6992 84.086 33.3938 76.4891 27.1781C67.5313 19.8453 51.7789 18.8094 34.1985 31.2Z" fill="#CF701E"/>
<path d="M62.6562 64.5323C47.6047 76.6183 37.2453 101.572 55.3234 113.232C68.8617 121.956 88.1789 115.375 99.1781 105.188C107.78 97.2253 118.637 76.1105 108.319 63.5776C99.1375 52.4261 78.7234 51.6339 62.6562 64.5323Z" fill="#FBD5B2"/>
<path d="M60.1883 33.1301C59.2235 32.1652 57.6899 32.2465 56.4406 33.7192C55.1914 35.1918 55.0188 37.0606 56.075 37.9035C57.6188 39.1527 59.2336 37.5887 60.0461 36.5121C60.9196 35.334 61.2852 34.227 60.1883 33.1301ZM32.4211 45.1043C30.5117 44.8098 29.9227 46.6481 29.8516 48.1918C29.7805 49.7356 29.557 51.5027 31.6188 51.6449C33.6805 51.7871 34.1172 49.6645 34.1172 48.2629C34.107 46.8613 34.3102 45.3887 32.4211 45.1043ZM33 63.0301C31.1617 62.9488 30.5727 64.5028 30.6539 66.7777C30.7352 69.0527 31.4664 70.4543 32.7156 70.3731C33.9649 70.302 34.6453 68.9004 34.7774 66.991C34.9195 64.7871 34.7672 63.1012 33 63.0301ZM39.5406 70.3731C38.4336 69.5809 36.8188 70.1496 36.2297 72.4348C35.6 74.8723 36.5547 75.6442 37.3367 75.959C38.586 76.477 39.5406 75.1465 39.9774 73.684C40.4242 72.2113 40.5766 71.1043 39.5406 70.3731Z" fill="#AB5931"/>
<path d="M82.7656 61.4652C81.557 60.6426 72.6906 62.5113 64.1797 70.5957C55.6688 78.6801 52.8453 85.4035 53.6883 87.709C54.5313 90.0144 60.3 89.9129 62.6156 89.9129C64.9313 89.9129 70.893 89.8621 72.8024 89.8113C76.5805 89.7098 76.5805 93.3762 72.7008 93.9043C69.5625 94.3309 60.9398 94.6355 57.4766 95.8949C54.4297 97.0019 51.7078 97.8855 51.4945 100.303C51.2813 102.72 55.0594 108.702 61.3664 110.906C67.6734 113.11 75.118 112.48 76.4789 111.434C77.8398 110.388 78.7844 102.933 78.9977 99.4699C79.2109 96.0066 79.0992 91.0707 81.7297 91.0707C84.3602 91.0707 83.6188 97.266 83.7203 99.7848C83.8219 102.304 83.6188 106.711 84.9797 107.768C86.3406 108.814 91.7742 106.112 96.5274 101.359C100.834 97.0527 104.297 92.4316 103.038 90.8574C101.778 89.2832 91.3883 89.0699 88.8695 89.1816C86.3508 89.2832 85.9344 84.9871 89.4992 84.8754C93.0641 84.7738 101.677 85.5051 104.409 84.0324C107.141 82.5598 110.492 75.8465 105.881 68.2902C101.27 60.734 95.9078 60.5207 93.6023 60.734C91.2969 60.9473 90.2406 67.0309 89.4078 69.9762C88.5648 72.9113 87.732 78.3754 87.4172 79.6348C87.1024 80.8941 84.3703 81.9402 84.1672 79.2184C83.9539 76.4863 84.3805 71.6621 84.482 68.9301C84.5836 66.198 84.7563 62.8363 82.7656 61.4652Z" fill="#FF605E"/>
<path d="M88.7477 92.9597C88.7477 92.9597 80.5618 85.9215 79.9321 86.7644C79.3024 87.6074 78.043 89.0699 77.8297 91.3855C77.6165 93.691 78.3883 94.4121 78.3883 94.4121C78.3883 94.4121 86.0157 104.507 87.6915 106.396C89.3672 108.286 91.7438 111.779 91.9571 113.455C92.1704 115.131 91.3477 120.727 92.0993 122.464C93.0438 124.668 94.9126 126.13 97.7462 126.668C99.1782 126.943 104.338 126.597 105.709 125.226C107.08 123.855 107.669 121.326 107.669 120.067C107.669 118.807 107.08 117.893 108.441 117.264C109.802 116.634 113.844 117.121 115.733 116.075C117.622 115.029 119.095 112.775 118.993 110.144C118.891 107.524 115.195 105.746 114.88 105.746C114.565 105.746 88.7477 92.9597 88.7477 92.9597Z" fill="#DFBBAA"/>
<path d="M89.7937 83.129C89.3367 82.8142 89.0726 82.7025 88.7273 82.672C87.2242 82.5501 85.2742 82.6821 83.0601 84.0736C80.7343 85.5259 79.1296 87.8212 79.1296 87.8212C79.1296 87.8212 91.9976 103.665 93.1554 105.351C94.3132 107.027 96.4054 109.759 96.4054 111.12C96.4054 112.481 95.6132 118.067 96.0906 119.306C96.8218 121.195 99.5539 123.815 102.073 123.815C105.648 123.815 107.039 121.865 107.567 120.494C108.095 119.123 108.065 114.989 108.898 112.897C109.944 110.277 118.434 112.531 118.962 110.856C119.491 109.18 120.252 104.64 116.566 102.507C113.834 100.933 107.009 101.776 107.009 101.776C107.009 101.776 91.1343 84.0329 89.7937 83.129Z" fill="#FFEBCA"/>
</svg>
