<svg width="546" height="285" viewBox="0 0 546 285" fill="none" xmlns="http://www.w3.org/2000/svg">
<g clip-path="url(#clip0_201_1105)">
<path d="M73.7878 148.511H56.3461C55.7328 148.511 55.1446 148.742 54.711 149.155C54.2773 149.567 54.0337 150.126 54.0337 150.709V157.988C54.0337 158.571 54.2773 159.13 54.711 159.543C55.1446 159.955 55.7328 160.187 56.3461 160.187H59.2365V171.093H70.8975V160.187H73.7878C74.4011 160.187 74.9893 159.955 75.423 159.543C75.8566 159.13 76.1003 158.571 76.1003 157.988V150.709C76.1003 150.126 75.8566 149.567 75.423 149.155C74.9893 148.742 74.4011 148.511 73.7878 148.511Z" fill="#5B6D5B"/>
<path d="M91.2576 215.126C80.5758 200.265 75.115 182.571 75.6576 164.579C75.6673 164.163 75.5256 163.758 75.2565 163.431C74.9874 163.104 74.6076 162.875 74.1814 162.784V159.639H55.7607V162.741H55.5068C55.247 162.741 54.9901 162.792 54.752 162.891C54.514 162.99 54.3 163.135 54.1233 163.316C53.9467 163.497 53.8112 163.711 53.7253 163.944C53.6395 164.177 53.6051 164.424 53.6244 164.671C55.0756 183.904 50.1752 201.152 38.9231 216.415C38.2756 217.293 37.9448 218.346 37.9804 219.417L39.9946 278.654C40.043 279.976 40.6263 281.228 41.6227 282.15C42.6191 283.073 43.9516 283.593 45.3421 283.604H87.0072C88.4136 283.593 89.7599 283.06 90.7594 282.12C91.7588 281.179 92.3324 279.904 92.3579 278.567L93.1341 221.052C93.1571 218.941 92.5025 216.874 91.2576 215.126V215.126Z" fill="#3F3D56"/>
<path opacity="0.2" d="M70.1519 150.882C70.1519 152.14 69.6263 153.347 68.6907 154.236C67.755 155.126 66.4861 155.626 65.1629 155.626C63.8398 155.626 62.5708 155.126 61.6352 154.236C60.6996 153.347 60.174 152.14 60.174 150.882" fill="black"/>
<path d="M84.6619 234.802H79.6166C79.1349 231.831 77.5505 229.121 75.1501 227.163C72.7496 225.206 69.6915 224.13 66.529 224.13C63.3665 224.13 60.3084 225.206 57.9079 227.163C55.5075 229.121 53.9231 231.831 53.4414 234.802H48.3957C47.8589 234.802 47.3284 234.913 46.8407 235.126C46.3529 235.339 45.9194 235.65 45.5698 236.037C45.2203 236.425 44.963 236.879 44.8155 237.37C44.6681 237.861 44.634 238.376 44.7157 238.881L50.196 272.749H81.6649L88.3215 238.995C88.4224 238.484 88.4034 237.957 88.2661 237.454C88.1288 236.95 87.8765 236.482 87.5271 236.082C87.1777 235.681 86.7398 235.359 86.2446 235.138C85.7494 234.917 85.209 234.802 84.6619 234.802Z" fill="#5B6D5B"/>
<path d="M508.646 180.364L507.436 226.354L505.937 283.383H454.921L453.164 216.566L452.212 180.364H508.646Z" fill="#E6E6E6"/>
<path d="M483.815 155.897H476.591V246.897H483.815V155.897Z" fill="#5B6D5B"/>
<path d="M505.034 215.017L503.668 280.383H457.167L455.566 203.8C459.756 202.681 464.142 202.395 468.453 202.958C472.764 203.522 476.907 204.924 480.623 207.076C488.393 211.445 497.121 213.797 505.034 215.017Z" fill="#3F3D56"/>
<path d="M468.679 222.375H462.05V228.677H468.679V222.375Z" fill="#E6E6E6"/>
<path d="M473.194 209.498H466.565V215.8H473.194V209.498Z" fill="#E6E6E6"/>
<path d="M487.427 218.413L482.103 214.659L478.154 219.72L483.478 223.475L487.427 218.413Z" fill="#E6E6E6"/>
<path d="M499.403 229.579L494.079 225.825L490.13 230.886L495.454 234.641L499.403 229.579Z" fill="#E6E6E6"/>
<path d="M479.086 236.018L473.762 232.264L469.814 237.325L475.138 241.08L479.086 236.018Z" fill="#E6E6E6"/>
<path d="M494.65 206.977C495.398 206.977 496.005 206.401 496.005 205.69C496.005 204.978 495.398 204.402 494.65 204.402C493.902 204.402 493.296 204.978 493.296 205.69C493.296 206.401 493.902 206.977 494.65 206.977Z" fill="#3F3D56"/>
<path d="M467.11 198.392C467.858 198.392 468.465 197.816 468.465 197.105C468.465 196.393 467.858 195.817 467.11 195.817C466.362 195.817 465.756 196.393 465.756 197.105C465.756 197.816 466.362 198.392 467.11 198.392Z" fill="#3F3D56"/>
<path d="M490.136 189.378C490.884 189.378 491.49 188.802 491.49 188.09C491.49 187.379 490.884 186.803 490.136 186.803C489.388 186.803 488.781 187.379 488.781 188.09C488.781 188.802 489.388 189.378 490.136 189.378Z" fill="#3F3D56"/>
<path d="M273.312 282.99C355.256 282.99 421.686 219.832 421.686 141.922C421.686 64.0123 355.256 0.854004 273.312 0.854004C191.367 0.854004 124.938 64.0123 124.938 141.922C124.938 219.832 191.367 282.99 273.312 282.99Z" fill="#5B6D5B"/>
<path opacity="0.2" d="M273.312 244.888C248.257 244.888 223.977 236.628 204.609 221.516C185.241 206.403 171.983 185.374 167.096 162.01C162.208 138.646 165.992 114.394 177.803 93.385C189.614 72.3763 208.721 55.9112 231.869 46.7952C255.017 37.6792 280.774 36.4762 304.75 43.3913C328.726 50.3064 349.439 64.9116 363.359 84.7185C377.279 104.525 383.545 128.308 381.089 152.015C378.633 175.722 367.607 197.886 349.891 214.73C339.858 224.321 327.923 231.925 314.778 237.102C301.634 242.279 287.54 244.925 273.312 244.888V244.888ZM273.312 45.3065C217.279 45.3065 171.692 88.6481 171.692 141.922C171.692 195.196 217.279 238.538 273.312 238.538C329.345 238.538 374.931 195.196 374.931 141.922C374.931 88.6481 329.345 45.3065 273.312 45.3065Z" fill="black"/>
<path d="M273.312 241.713C331.279 241.713 378.271 197.035 378.271 141.922C378.271 86.8092 331.279 42.1313 273.312 42.1313C215.345 42.1313 168.353 86.8092 168.353 141.922C168.353 197.035 215.345 241.713 273.312 241.713Z" fill="#3F3D56"/>
<path d="M195.256 102.02C194.46 100.538 193.979 98.9208 193.841 97.2617C193.703 95.6026 193.91 93.9339 194.45 92.3509C194.99 90.7679 195.854 89.3018 196.991 88.0362C198.127 86.7706 199.515 85.7305 201.075 84.9753C202.635 84.22 204.336 83.7645 206.081 83.6348C207.826 83.505 209.581 83.7035 211.246 84.219C212.91 84.7345 214.451 85.5568 215.781 86.6389C217.111 87.721 218.204 89.0418 218.996 90.5256L248.65 145.889C249.446 147.371 249.927 148.988 250.065 150.647C250.203 152.306 249.997 153.975 249.456 155.558C248.916 157.141 248.052 158.607 246.916 159.873C245.779 161.138 244.391 162.178 242.831 162.933C241.271 163.689 239.57 164.144 237.825 164.274C236.08 164.404 234.325 164.205 232.66 163.69C230.996 163.174 229.455 162.352 228.125 161.27C226.795 160.188 225.702 158.867 224.91 157.383L195.256 102.02Z" fill="#FF6584"/>
<path opacity="0.2" d="M198.564 108.195L197.195 105.64C204.025 100.594 212.046 96.8829 220.935 94.1455L222.304 96.7007C212.683 98.6055 204.498 102.13 198.564 108.195Z" fill="black"/>
<path opacity="0.2" d="M204.951 120.119L203.582 117.564C210.412 112.518 218.433 108.807 227.322 106.07L228.691 108.625C219.07 110.53 210.885 114.055 204.951 120.119Z" fill="black"/>
<path opacity="0.2" d="M211.337 132.044L209.969 129.488C216.799 124.443 224.82 120.732 233.709 117.994L235.078 120.549C225.457 122.454 217.272 125.979 211.337 132.044Z" fill="black"/>
<path opacity="0.2" d="M217.724 143.968L216.356 141.413C223.186 136.367 231.207 132.656 240.096 129.918L241.465 132.474C231.844 134.378 223.659 137.903 217.724 143.968Z" fill="black"/>
<path opacity="0.2" d="M224.111 155.893L222.743 153.338C229.573 148.292 237.594 144.581 246.483 141.843L247.851 144.398C238.231 146.303 230.046 149.828 224.111 155.893Z" fill="black"/>
<path d="M173.009 122.746C172.213 121.264 171.733 119.647 171.594 117.988C171.456 116.329 171.663 114.66 172.204 113.077C172.744 111.495 173.608 110.028 174.744 108.763C175.881 107.498 177.269 106.458 178.829 105.702C180.388 104.947 182.089 104.492 183.834 104.362C185.579 104.232 187.334 104.43 188.999 104.946C190.663 105.461 192.204 106.283 193.534 107.365C194.864 108.447 195.956 109.768 196.749 111.252L226.403 166.615C228.002 169.607 228.285 173.081 227.192 176.273C226.098 179.464 223.717 182.112 220.571 183.636C217.425 185.159 213.772 185.432 210.414 184.396C207.056 183.36 204.268 181.098 202.663 178.109L173.009 122.746Z" fill="#FF6584"/>
<path opacity="0.2" d="M176.317 128.921L174.948 126.366C181.778 121.32 189.799 117.609 198.688 114.872L200.057 117.427C190.436 119.332 182.251 122.857 176.317 128.921Z" fill="black"/>
<path opacity="0.2" d="M182.704 140.845L181.335 138.29C188.165 133.244 196.186 129.533 205.075 126.796L206.444 129.351C196.823 131.256 188.638 134.781 182.704 140.845Z" fill="black"/>
<path opacity="0.2" d="M189.09 152.77L187.722 150.214C194.552 145.169 202.573 141.458 211.462 138.72L212.831 141.275C203.21 143.18 195.025 146.705 189.09 152.77Z" fill="black"/>
<path opacity="0.2" d="M195.477 164.694L194.109 162.139C200.939 157.093 208.96 153.382 217.849 150.645L219.218 153.2C209.597 155.105 201.412 158.63 195.477 164.694Z" fill="black"/>
<path opacity="0.2" d="M201.864 176.618L200.496 174.063C207.326 169.017 215.347 165.306 224.236 162.569L225.605 165.124C215.984 167.029 207.799 170.554 201.864 176.618Z" fill="black"/>
<path d="M343.443 145.097L343.537 145.097C346.731 145.123 349.859 144.233 352.513 142.543C355.166 140.853 357.223 138.441 358.414 135.623C360.863 129.738 362.097 123.459 362.049 117.129C361.882 90.3396 338.959 68.3617 310.784 67.9912C298.785 67.8315 287.096 71.6217 277.701 78.7193C268.305 85.8168 261.78 95.7851 259.231 106.934C256.683 118.083 258.268 129.727 263.717 139.893C269.167 150.058 278.146 158.118 289.133 162.708C292.036 163.93 295.26 164.29 298.382 163.739C301.504 163.189 304.378 161.754 306.628 159.624C311.453 155.012 317.19 151.355 323.508 148.862C329.827 146.368 336.602 145.089 343.443 145.097Z" fill="#E6E6E6"/>
<path d="M316.727 130.129C326.212 130.129 333.902 122.818 333.902 113.799C333.902 104.781 326.212 97.4697 316.727 97.4697C307.241 97.4697 299.552 104.781 299.552 113.799C299.552 122.818 307.241 130.129 316.727 130.129Z" fill="#F9A825"/>
<path d="M279.399 111.963C280.516 111.963 281.422 111.102 281.422 110.039C281.422 108.977 280.516 108.116 279.399 108.116C278.282 108.116 277.376 108.977 277.376 110.039C277.376 111.102 278.282 111.963 279.399 111.963Z" fill="#3F3D56"/>
<path d="M212.607 113.778C213.724 113.778 214.63 112.916 214.63 111.854C214.63 110.791 213.724 109.93 212.607 109.93C211.489 109.93 210.584 110.791 210.584 111.854C210.584 112.916 211.489 113.778 212.607 113.778Z" fill="#3F3D56"/>
<path d="M290.182 92.0266C291.3 92.0266 292.206 91.1653 292.206 90.1029C292.206 89.0405 291.3 88.1792 290.182 88.1792C289.065 88.1792 288.159 89.0405 288.159 90.1029C288.159 91.1653 289.065 92.0266 290.182 92.0266Z" fill="#3F3D56"/>
<path d="M290.125 147.474C291.242 147.474 292.148 146.613 292.148 145.551C292.148 144.488 291.242 143.627 290.125 143.627C289.007 143.627 288.101 144.488 288.101 145.551C288.101 146.613 289.007 147.474 290.125 147.474Z" fill="#3F3D56"/>
<path d="M330.2 88.0534C331.318 88.0534 332.223 87.1922 332.223 86.1297C332.223 85.0673 331.318 84.2061 330.2 84.2061C329.083 84.2061 328.177 85.0673 328.177 86.1297C328.177 87.1922 329.083 88.0534 330.2 88.0534Z" fill="#3F3D56"/>
<path d="M199.478 140.671C200.596 140.671 201.502 139.809 201.502 138.747C201.502 137.685 200.596 136.823 199.478 136.823C198.361 136.823 197.455 137.685 197.455 138.747C197.455 139.809 198.361 140.671 199.478 140.671Z" fill="#3F3D56"/>
<path d="M214.268 168.34C215.385 168.34 216.291 167.479 216.291 166.416C216.291 165.354 215.385 164.493 214.268 164.493C213.151 164.493 212.245 165.354 212.245 166.416C212.245 167.479 213.151 168.34 214.268 168.34Z" fill="#3F3D56"/>
<path d="M307.185 177.303C311.401 177.303 314.818 174.053 314.818 170.045C314.818 166.037 311.401 162.788 307.185 162.788C302.969 162.788 299.552 166.037 299.552 170.045C299.552 174.053 302.969 177.303 307.185 177.303Z" fill="#FF6584"/>
<path opacity="0.2" d="M312.91 170.499C312.91 171.942 312.307 173.327 311.233 174.347C310.16 175.368 308.703 175.942 307.185 175.942C305.667 175.942 304.21 175.368 303.137 174.347C302.063 173.327 301.46 171.942 301.46 170.499" fill="black"/>
<path opacity="0.2" d="M301.46 169.591C301.46 168.147 302.063 166.763 303.137 165.742C304.21 164.721 305.667 164.148 307.185 164.148C308.703 164.148 310.16 164.721 311.233 165.742C312.307 166.763 312.91 168.147 312.91 169.591" fill="black"/>
<path d="M304.322 168.23C304.586 168.23 304.8 167.926 304.8 167.55C304.8 167.174 304.586 166.87 304.322 166.87C304.059 166.87 303.845 167.174 303.845 167.55C303.845 167.926 304.059 168.23 304.322 168.23Z" fill="#FF6584"/>
<path d="M307.185 167.323C307.448 167.323 307.662 167.019 307.662 166.643C307.662 166.267 307.448 165.962 307.185 165.962C306.921 165.962 306.708 166.267 306.708 166.643C306.708 167.019 306.921 167.323 307.185 167.323Z" fill="#FF6584"/>
<path d="M307.185 173.22C307.448 173.22 307.662 172.916 307.662 172.54C307.662 172.164 307.448 171.859 307.185 171.859C306.921 171.859 306.708 172.164 306.708 172.54C306.708 172.916 306.921 173.22 307.185 173.22Z" fill="#FF6584"/>
<path d="M310.047 169.591C310.311 169.591 310.524 169.287 310.524 168.911C310.524 168.535 310.311 168.23 310.047 168.23C309.784 168.23 309.57 168.535 309.57 168.911C309.57 169.287 309.784 169.591 310.047 169.591Z" fill="#FF6584"/>
<path d="M309.57 174.581C309.834 174.581 310.047 174.276 310.047 173.901C310.047 173.525 309.834 173.22 309.57 173.22C309.307 173.22 309.093 173.525 309.093 173.901C309.093 174.276 309.307 174.581 309.57 174.581Z" fill="#FF6584"/>
<path d="M303.845 172.313C304.109 172.313 304.322 172.008 304.322 171.633C304.322 171.257 304.109 170.952 303.845 170.952C303.582 170.952 303.368 171.257 303.368 171.633C303.368 172.008 303.582 172.313 303.845 172.313Z" fill="#FF6584"/>
<path d="M322.452 157.798C326.668 157.798 330.085 154.548 330.085 150.54C330.085 146.532 326.668 143.283 322.452 143.283C318.236 143.283 314.818 146.532 314.818 150.54C314.818 154.548 318.236 157.798 322.452 157.798Z" fill="#FF6584"/>
<path opacity="0.2" d="M328.177 150.994C328.177 152.438 327.574 153.822 326.5 154.843C325.426 155.864 323.97 156.437 322.452 156.437C320.933 156.437 319.477 155.864 318.403 154.843C317.33 153.822 316.727 152.438 316.727 150.994" fill="black"/>
<path opacity="0.2" d="M316.727 150.087C316.727 148.643 317.33 147.259 318.403 146.238C319.477 145.217 320.933 144.644 322.452 144.644C323.97 144.644 325.426 145.217 326.5 146.238C327.574 147.259 328.177 148.643 328.177 150.087" fill="black"/>
<path d="M319.589 148.726C319.853 148.726 320.066 148.421 320.066 148.046C320.066 147.67 319.853 147.365 319.589 147.365C319.326 147.365 319.112 147.67 319.112 148.046C319.112 148.421 319.326 148.726 319.589 148.726Z" fill="#FF6584"/>
<path d="M322.452 147.819C322.715 147.819 322.929 147.514 322.929 147.138C322.929 146.763 322.715 146.458 322.452 146.458C322.188 146.458 321.975 146.763 321.975 147.138C321.975 147.514 322.188 147.819 322.452 147.819Z" fill="#FF6584"/>
<path d="M322.452 153.715C322.715 153.715 322.929 153.411 322.929 153.035C322.929 152.659 322.715 152.354 322.452 152.354C322.188 152.354 321.975 152.659 321.975 153.035C321.975 153.411 322.188 153.715 322.452 153.715Z" fill="#FF6584"/>
<path d="M325.314 150.087C325.578 150.087 325.791 149.782 325.791 149.406C325.791 149.031 325.578 148.726 325.314 148.726C325.051 148.726 324.837 149.031 324.837 149.406C324.837 149.782 325.051 150.087 325.314 150.087Z" fill="#FF6584"/>
<path d="M324.837 155.076C325.101 155.076 325.314 154.771 325.314 154.396C325.314 154.02 325.101 153.715 324.837 153.715C324.574 153.715 324.36 154.02 324.36 154.396C324.36 154.771 324.574 155.076 324.837 155.076Z" fill="#FF6584"/>
<path d="M319.112 152.809C319.376 152.809 319.589 152.504 319.589 152.128C319.589 151.752 319.376 151.448 319.112 151.448C318.849 151.448 318.635 151.752 318.635 152.128C318.635 152.504 318.849 152.809 319.112 152.809Z" fill="#FF6584"/>
<path d="M337.718 167.777C341.934 167.777 345.352 164.527 345.352 160.519C345.352 156.511 341.934 153.262 337.718 153.262C333.503 153.262 330.085 156.511 330.085 160.519C330.085 164.527 333.503 167.777 337.718 167.777Z" fill="#5B6D5B"/>
<path opacity="0.2" d="M343.443 160.973C343.443 162.417 342.84 163.801 341.767 164.822C340.693 165.843 339.237 166.416 337.718 166.416C336.2 166.416 334.744 165.843 333.67 164.822C332.597 163.801 331.993 162.417 331.993 160.973" fill="black"/>
<path opacity="0.2" d="M331.993 160.066C331.993 158.622 332.597 157.238 333.67 156.217C334.744 155.196 336.2 154.623 337.718 154.623C339.237 154.623 340.693 155.196 341.767 156.217C342.84 157.238 343.443 158.622 343.443 160.066" fill="black"/>
<path d="M334.856 158.705C335.119 158.705 335.333 158.4 335.333 158.025C335.333 157.649 335.119 157.344 334.856 157.344C334.593 157.344 334.379 157.649 334.379 158.025C334.379 158.4 334.593 158.705 334.856 158.705Z" fill="#5B6D5B"/>
<path d="M337.718 157.798C337.982 157.798 338.196 157.493 338.196 157.117C338.196 156.742 337.982 156.437 337.718 156.437C337.455 156.437 337.241 156.742 337.241 157.117C337.241 157.493 337.455 157.798 337.718 157.798Z" fill="#5B6D5B"/>
<path d="M337.718 163.695C337.982 163.695 338.196 163.39 338.196 163.014C338.196 162.639 337.982 162.334 337.718 162.334C337.455 162.334 337.241 162.639 337.241 163.014C337.241 163.39 337.455 163.695 337.718 163.695Z" fill="#5B6D5B"/>
<path d="M340.581 160.066C340.844 160.066 341.058 159.761 341.058 159.385C341.058 159.01 340.844 158.705 340.581 158.705C340.317 158.705 340.104 159.01 340.104 159.385C340.104 159.761 340.317 160.066 340.581 160.066Z" fill="#5B6D5B"/>
<path d="M340.104 165.055C340.367 165.055 340.581 164.75 340.581 164.375C340.581 163.999 340.367 163.694 340.104 163.694C339.84 163.694 339.627 163.999 339.627 164.375C339.627 164.75 339.84 165.055 340.104 165.055Z" fill="#5B6D5B"/>
<path d="M334.379 162.788C334.642 162.788 334.856 162.483 334.856 162.107C334.856 161.731 334.642 161.427 334.379 161.427C334.115 161.427 333.902 161.731 333.902 162.107C333.902 162.483 334.115 162.788 334.379 162.788Z" fill="#5B6D5B"/>
<path d="M299.552 168.684C303.767 168.684 307.185 165.435 307.185 161.426C307.185 157.418 303.767 154.169 299.552 154.169C295.336 154.169 291.918 157.418 291.918 161.426C291.918 165.435 295.336 168.684 299.552 168.684Z" fill="#5B6D5B"/>
<path opacity="0.2" d="M305.277 161.88C305.277 163.324 304.673 164.708 303.6 165.729C302.526 166.75 301.07 167.324 299.552 167.324C298.033 167.324 296.577 166.75 295.503 165.729C294.43 164.708 293.827 163.324 293.827 161.88" fill="black"/>
<path opacity="0.2" d="M293.827 160.973C293.827 159.529 294.43 158.145 295.503 157.124C296.577 156.103 298.033 155.53 299.552 155.53C301.07 155.53 302.526 156.103 303.6 157.124C304.673 158.145 305.277 159.529 305.277 160.973" fill="black"/>
<path d="M296.689 159.612C296.952 159.612 297.166 159.308 297.166 158.932C297.166 158.556 296.952 158.251 296.689 158.251C296.426 158.251 296.212 158.556 296.212 158.932C296.212 159.308 296.426 159.612 296.689 159.612Z" fill="#5B6D5B"/>
<path d="M299.552 158.705C299.815 158.705 300.029 158.4 300.029 158.025C300.029 157.649 299.815 157.344 299.552 157.344C299.288 157.344 299.074 157.649 299.074 158.025C299.074 158.4 299.288 158.705 299.552 158.705Z" fill="#5B6D5B"/>
<path d="M299.552 164.602C299.815 164.602 300.029 164.297 300.029 163.922C300.029 163.546 299.815 163.241 299.552 163.241C299.288 163.241 299.074 163.546 299.074 163.922C299.074 164.297 299.288 164.602 299.552 164.602Z" fill="#5B6D5B"/>
<path d="M302.414 160.973C302.678 160.973 302.891 160.668 302.891 160.293C302.891 159.917 302.678 159.612 302.414 159.612C302.151 159.612 301.937 159.917 301.937 160.293C301.937 160.668 302.151 160.973 302.414 160.973Z" fill="#5B6D5B"/>
<path d="M301.937 165.962C302.201 165.962 302.414 165.658 302.414 165.282C302.414 164.906 302.201 164.602 301.937 164.602C301.674 164.602 301.46 164.906 301.46 165.282C301.46 165.658 301.674 165.962 301.937 165.962Z" fill="#5B6D5B"/>
<path d="M296.212 163.695C296.475 163.695 296.689 163.39 296.689 163.014C296.689 162.639 296.475 162.334 296.212 162.334C295.948 162.334 295.735 162.639 295.735 163.014C295.735 163.39 295.948 163.695 296.212 163.695Z" fill="#5B6D5B"/>
<path d="M316.727 171.859C320.942 171.859 324.36 168.61 324.36 164.602C324.36 160.594 320.942 157.344 316.727 157.344C312.511 157.344 309.093 160.594 309.093 164.602C309.093 168.61 312.511 171.859 316.727 171.859Z" fill="#5B6D5B"/>
<path opacity="0.2" d="M322.452 165.055C322.452 165.77 322.304 166.478 322.016 167.138C321.728 167.799 321.306 168.399 320.775 168.904C320.243 169.409 319.612 169.81 318.917 170.084C318.223 170.358 317.478 170.498 316.727 170.498C315.975 170.498 315.23 170.358 314.536 170.084C313.841 169.81 313.21 169.409 312.678 168.904C312.147 168.399 311.725 167.799 311.437 167.138C311.15 166.478 311.002 165.77 311.002 165.055" fill="black"/>
<path opacity="0.2" d="M311.002 164.148C311.002 163.433 311.15 162.726 311.437 162.065C311.725 161.405 312.147 160.805 312.678 160.299C313.21 159.794 313.841 159.393 314.536 159.119C315.23 158.846 315.975 158.705 316.727 158.705C317.478 158.705 318.223 158.846 318.917 159.119C319.612 159.393 320.243 159.794 320.775 160.299C321.306 160.805 321.728 161.405 322.016 162.065C322.304 162.726 322.452 163.433 322.452 164.148" fill="black"/>
<path d="M313.864 162.788C314.128 162.788 314.341 162.483 314.341 162.107C314.341 161.731 314.128 161.427 313.864 161.427C313.601 161.427 313.387 161.731 313.387 162.107C313.387 162.483 313.601 162.788 313.864 162.788Z" fill="#5B6D5B"/>
<path d="M316.727 161.88C316.99 161.88 317.204 161.576 317.204 161.2C317.204 160.824 316.99 160.52 316.727 160.52C316.463 160.52 316.25 160.824 316.25 161.2C316.25 161.576 316.463 161.88 316.727 161.88Z" fill="#5B6D5B"/>
<path d="M316.727 167.777C316.99 167.777 317.204 167.472 317.204 167.096C317.204 166.721 316.99 166.416 316.727 166.416C316.463 166.416 316.25 166.721 316.25 167.096C316.25 167.472 316.463 167.777 316.727 167.777Z" fill="#5B6D5B"/>
<path d="M319.589 164.148C319.853 164.148 320.066 163.844 320.066 163.468C320.066 163.092 319.853 162.788 319.589 162.788C319.326 162.788 319.112 163.092 319.112 163.468C319.112 163.844 319.326 164.148 319.589 164.148Z" fill="#5B6D5B"/>
<path d="M319.112 169.138C319.376 169.138 319.589 168.833 319.589 168.457C319.589 168.081 319.376 167.777 319.112 167.777C318.849 167.777 318.635 168.081 318.635 168.457C318.635 168.833 318.849 169.138 319.112 169.138Z" fill="#5B6D5B"/>
<path d="M313.387 166.87C313.65 166.87 313.864 166.565 313.864 166.189C313.864 165.813 313.65 165.509 313.387 165.509C313.124 165.509 312.91 165.813 312.91 166.189C312.91 166.565 313.124 166.87 313.387 166.87Z" fill="#5B6D5B"/>
<path d="M328.654 179.57C332.87 179.57 336.287 176.321 336.287 172.313C336.287 168.304 332.87 165.055 328.654 165.055C324.438 165.055 321.021 168.304 321.021 172.313C321.021 176.321 324.438 179.57 328.654 179.57Z" fill="#FF6584"/>
<path opacity="0.2" d="M334.379 172.767C334.379 174.21 333.776 175.595 332.702 176.615C331.628 177.636 330.172 178.21 328.654 178.21C327.135 178.21 325.679 177.636 324.606 176.615C323.532 175.595 322.929 174.21 322.929 172.767" fill="black"/>
<path opacity="0.2" d="M322.929 171.859C322.929 170.416 323.532 169.031 324.606 168.01C325.679 166.989 327.135 166.416 328.654 166.416C330.172 166.416 331.628 166.989 332.702 168.01C333.776 169.031 334.379 170.416 334.379 171.859" fill="black"/>
<path d="M325.791 170.498C326.055 170.498 326.268 170.194 326.268 169.818C326.268 169.442 326.055 169.138 325.791 169.138C325.528 169.138 325.314 169.442 325.314 169.818C325.314 170.194 325.528 170.498 325.791 170.498Z" fill="#FF6584"/>
<path d="M328.654 169.591C328.917 169.591 329.131 169.287 329.131 168.911C329.131 168.535 328.917 168.23 328.654 168.23C328.39 168.23 328.177 168.535 328.177 168.911C328.177 169.287 328.39 169.591 328.654 169.591Z" fill="#FF6584"/>
<path d="M328.654 175.488C328.917 175.488 329.131 175.184 329.131 174.808C329.131 174.432 328.917 174.127 328.654 174.127C328.39 174.127 328.177 174.432 328.177 174.808C328.177 175.184 328.39 175.488 328.654 175.488Z" fill="#FF6584"/>
<path d="M331.516 171.859C331.78 171.859 331.993 171.555 331.993 171.179C331.993 170.803 331.78 170.499 331.516 170.499C331.253 170.499 331.039 170.803 331.039 171.179C331.039 171.555 331.253 171.859 331.516 171.859Z" fill="#FF6584"/>
<path d="M331.039 176.849C331.303 176.849 331.516 176.544 331.516 176.168C331.516 175.792 331.303 175.488 331.039 175.488C330.776 175.488 330.562 175.792 330.562 176.168C330.562 176.544 330.776 176.849 331.039 176.849Z" fill="#FF6584"/>
<path d="M325.314 174.581C325.578 174.581 325.791 174.276 325.791 173.901C325.791 173.525 325.578 173.22 325.314 173.22C325.051 173.22 324.837 173.525 324.837 173.901C324.837 174.276 325.051 174.581 325.314 174.581Z" fill="#FF6584"/>
<path d="M230.489 146.567C231.606 146.567 232.512 145.706 232.512 144.643C232.512 143.581 231.606 142.72 230.489 142.72C229.372 142.72 228.466 143.581 228.466 144.643C228.466 145.706 229.372 146.567 230.489 146.567Z" fill="#3F3D56"/>
<path d="M285.487 214.469L236.894 201.656L238.755 195.083L287.348 207.895L285.487 214.469Z" fill="#F9A825"/>
<path d="M278.363 212.272C261.723 215.3 244.629 215.3 227.989 212.272V205.457C244.666 208.085 261.685 208.085 278.363 205.457V212.272Z" fill="#F9A825"/>
<path d="M283.542 191.828C266.901 194.857 249.808 194.857 233.167 191.828V185.014C249.845 187.642 266.864 187.642 283.542 185.014V191.828Z" fill="#F9A825"/>
<path d="M300.961 200.005C284.32 203.034 267.227 203.034 250.586 200.005V193.191C267.264 195.819 284.283 195.819 300.961 193.191V200.005Z" fill="#F9A825"/>
<path d="M305.198 207.729C288.557 210.757 271.464 210.757 254.823 207.729V200.914C271.501 203.542 288.52 203.542 305.198 200.914V207.729Z" fill="#F9A825"/>
<path d="M319.97 217.82L270.271 225.757L269.119 219.034L318.817 211.097L319.97 217.82Z" fill="#F9A825"/>
<path d="M312.546 218.694C298.767 228.137 283.238 235.023 266.774 238.991L263.825 232.799C280.145 228.454 295.608 221.598 309.598 212.502L312.546 218.694Z" fill="#F9A825"/>
<path d="M308.406 198.031C294.627 207.475 279.098 214.361 262.633 218.329L259.684 212.137C276.005 207.792 291.467 200.935 305.457 191.839L308.406 198.031Z" fill="#F9A825"/>
<path d="M327.772 198.443C313.993 207.886 298.464 214.772 281.999 218.74L279.051 212.548C295.371 208.203 310.833 201.347 324.823 192.251L327.772 198.443Z" fill="#F9A825"/>
<path d="M334.964 203.754C321.185 213.197 305.656 220.083 289.191 224.051L286.243 217.859C302.563 213.514 318.025 206.657 332.015 197.562L334.964 203.754Z" fill="#F9A825"/>
<path d="M274.743 190.457H272.358V192.725H274.743V190.457Z" fill="#00BF71"/>
<path d="M281.899 229.919H279.514V232.187H281.899V229.919Z" fill="#00BF71"/>
<path d="M243.732 190.457H241.347V192.725H243.732V190.457Z" fill="#00BF71"/>
<path d="M299.074 218.58H296.689V220.848H299.074V218.58Z" fill="#00BF71"/>
<path d="M300.506 205.425H298.12V207.693H300.506V205.425Z" fill="#00BF71"/>
<path d="M261.155 199.216L258.392 197.433L257.32 198.935L260.084 200.717L261.155 199.216Z" fill="#00BF71"/>
<path d="M289.303 204.205L286.54 202.422L285.468 203.924L288.232 205.706L289.303 204.205Z" fill="#00BF71"/>
<path d="M254.953 212.823L252.19 211.041L251.118 212.542L253.882 214.325L254.953 212.823Z" fill="#00BF71"/>
<path d="M272.448 212.691L274.323 210.064L272.744 209.045L270.869 211.673L272.448 212.691Z" fill="#00BF71"/>
<path d="M285.33 215.867L287.205 213.239L285.625 212.221L283.75 214.848L285.33 215.867Z" fill="#00BF71"/>
<path d="M319.683 204.98L321.558 202.353L319.979 201.334L318.104 203.961L319.683 204.98Z" fill="#00BF71"/>
<path d="M545.5 282.838H0.5V284.146H545.5V282.838Z" fill="#3F3D56"/>
</g>
<defs>
<clipPath id="clip0_201_1105">
<rect width="545" height="284" fill="white" transform="translate(0.5 0.5)"/>
</clipPath>
</defs>
</svg>
