<svg width="41" height="41" viewBox="0 0 41 41" fill="none" xmlns="http://www.w3.org/2000/svg">
<path d="M38.5781 23.2338C38.5781 22.6475 38.435 22.015 38.1075 21.3763C38.1875 21.1106 38.245 20.8425 38.2887 20.5738C38.4325 20.4881 38.5731 20.3831 38.6987 20.2438C39.5362 19.3106 39.2362 17.495 38.9831 16.4956C38.957 16.396 38.9174 16.3003 38.8656 16.2113C38.9425 15.9288 38.9831 15.6338 38.9831 15.3256C38.9837 7.83938 30.6925 1.75 20.5 1.75C10.3075 1.75 2.01625 7.83938 2.01625 15.3256C2.01625 15.6331 2.0575 15.9288 2.13375 16.2113C2.08239 16.2998 2.04308 16.3948 2.01687 16.4938C1.76375 17.4925 1.46375 19.305 2.2975 20.2369C2.38 20.7363 2.51875 21.2381 2.73 21.735C2.53161 22.2098 2.42739 22.7186 2.42312 23.2331C2.42312 23.7106 2.46812 24.1738 2.55 24.6263C2.23475 25.3632 2.07108 26.156 2.06875 26.9575C2.06937 32.5656 5.26687 39.25 20.5 39.25C35.7331 39.25 38.9306 32.5656 38.9306 26.9581C38.9283 26.1569 38.7649 25.3643 38.45 24.6275C38.5325 24.175 38.5781 23.7113 38.5781 23.2338M37.7337 15.3256C37.7337 18.4813 30.8081 20.6012 20.5 20.6012C10.1919 20.6012 3.26625 18.4806 3.26625 15.3256C3.26625 8.50688 10.9975 2.96 20.5 2.96C30.0025 2.96 37.7337 8.50688 37.7337 15.3256M20.5 38.04C9.09937 38.04 3.31875 34.3119 3.31875 26.9581C3.31875 26.8906 3.32 26.8225 3.32312 26.755C5.64562 31.4031 11.4106 33.7562 20.5006 33.7562C29.59 33.7562 35.3537 31.4038 37.6769 26.7569C37.6794 26.8238 37.6806 26.8913 37.6806 26.9581C37.6806 34.3125 31.9006 38.04 20.5 38.04ZM37.6569 22.8787L37.65 22.8656L37.6194 22.9787C36.1169 26.6925 31.3987 29.2631 22.1956 29.5412L19.1544 32.5231C19.0644 32.5212 18.97 32.5212 18.8806 32.5187L15.5325 29.3256C8.48437 28.5944 4.71125 26.2375 3.38812 23.0062L3.35 22.8662L3.33875 22.89C3.325 22.8544 3.3075 22.8206 3.29437 22.785C4.28562 24.3375 6.00125 25.7975 8.69062 26.9425C10.8006 27.8412 12.6719 28.1912 14.295 28.145L11.7025 25.6725C10.8848 25.4623 10.0845 25.1894 9.30875 24.8563C8.38607 24.4685 7.50301 23.9926 6.67187 23.435C6.87562 23.5075 7.08875 23.5569 7.32187 23.5569C7.81937 23.5569 8.30062 23.3875 8.725 23.2375C8.85375 23.1925 9.0375 23.1275 9.18375 23.0863C9.24875 23.2006 9.32125 23.3419 9.37625 23.4506C9.6875 24.0606 10.1125 24.8944 11.0069 25.1519C11.1687 25.1975 11.3381 25.2213 11.5112 25.2213C12.1631 25.2213 12.725 24.8956 13.2206 24.6088C13.3381 24.54 13.4944 24.45 13.6225 24.3856C13.7056 24.4875 13.7994 24.6156 13.8712 24.7138C14.2719 25.2575 14.8206 26.0025 15.7262 26.1206C15.8044 26.1313 15.8812 26.1356 15.9587 26.1356C16.7325 26.1356 17.3444 25.6513 17.8362 25.2613C17.94 25.1788 18.0756 25.0706 18.19 24.9894C18.2869 25.0806 18.3987 25.1956 18.485 25.2844C18.9787 25.7925 19.5937 26.4262 20.5006 26.4262C21.4075 26.4262 22.0219 25.7931 22.5162 25.2844C22.6025 25.1956 22.7137 25.0806 22.8112 24.9894C22.9262 25.0706 23.0612 25.1788 23.165 25.2606C23.6562 25.6506 24.2687 26.1356 25.0425 26.1356C25.1194 26.1356 25.1975 26.1306 25.2737 26.1212C25.4806 26.0939 25.6814 26.0324 25.8681 25.9394L24.3894 27.39C25.9969 27.7644 27.9475 27.7813 30.2681 27.2744C34.8662 26.2706 37.21 24.0269 38.0337 21.5919C37.9486 22.0317 37.8224 22.4625 37.6569 22.8787M4.025 20.8837L4.10875 20.8844C4.2525 20.8844 4.4025 20.8787 4.55375 20.8744C4.67875 20.8694 4.80437 20.8644 4.9275 20.8644C4.99062 20.8644 5.04187 20.8663 5.08375 20.8681C5.12125 20.9938 5.16 21.1544 5.18937 21.2769C5.30187 21.7413 5.44812 22.32 5.79625 22.7863C5.06062 22.1819 4.4725 21.5431 4.025 20.8837M26.2769 25.6719C26.6244 25.3919 26.8944 25.0319 27.13 24.7125C27.2031 24.6144 27.2975 24.4863 27.38 24.3844C27.5075 24.4494 27.6625 24.5387 27.7806 24.6075C28.2756 24.895 28.8362 25.22 29.4887 25.22C29.6612 25.22 29.8312 25.1963 29.9931 25.1506C30.8875 24.8931 31.3131 24.0587 31.6237 23.4487C31.6794 23.34 31.7512 23.1994 31.8162 23.0856C31.9625 23.1263 32.1469 23.1919 32.275 23.2369C32.7 23.3863 33.1806 23.5562 33.6787 23.5562C33.8169 23.5562 33.9475 23.5369 34.0762 23.5113C32.8987 24.2669 31.3975 24.8881 29.5125 25.2994C28.4499 25.5359 27.3654 25.6607 26.2769 25.6719M35.395 22.4875C35.6094 22.0881 35.72 21.6481 35.8094 21.2794C35.8387 21.1575 35.8775 20.9963 35.9144 20.8713C35.9556 20.8688 36.0062 20.8675 36.0675 20.8675C36.1912 20.8675 36.3181 20.8725 36.4444 20.8763C36.5275 20.8794 36.6075 20.88 36.6894 20.8825C36.3351 21.4754 35.8994 22.0157 35.395 22.4875M37.7969 19.4356C37.6162 19.6363 37.2781 19.6775 36.8937 19.6775C36.6287 19.6775 36.3406 19.6581 36.0687 19.6581C35.6994 19.6581 35.3562 19.6937 35.1287 19.86C34.5506 20.2831 34.6956 21.9106 33.9962 22.2781C33.9031 22.3263 33.7969 22.3469 33.6794 22.3469C33.0912 22.3469 32.245 21.8363 31.6219 21.8356C31.5193 21.8336 31.4173 21.851 31.3212 21.8869C30.6425 22.1531 30.4044 23.7738 29.6575 23.9881C29.6028 24.0035 29.5462 24.0111 29.4894 24.0106C28.8319 24.0106 27.93 23.0969 27.2425 23.0969C27.1956 23.0969 27.15 23.1012 27.1044 23.11C26.3819 23.2562 25.8812 24.8194 25.1169 24.92C25.0925 24.9225 25.0669 24.9244 25.0425 24.9244C24.3344 24.9244 23.4912 23.6844 22.7587 23.6844L22.7194 23.6856C21.9769 23.7325 21.2681 25.215 20.5012 25.215C19.7337 25.215 19.0262 23.7325 18.2837 23.6856C18.2704 23.6849 18.2571 23.6845 18.2437 23.6844C17.5112 23.6844 16.6675 24.9244 15.96 24.9244C15.9351 24.9245 15.9103 24.923 15.8856 24.92C15.1212 24.8194 14.6225 23.2562 13.8981 23.11C13.8527 23.1008 13.8064 23.0964 13.76 23.0969C13.0725 23.0969 12.17 24.0106 11.5119 24.0106C11.455 24.0111 11.3984 24.0035 11.3437 23.9881C10.5962 23.7731 10.3581 22.1519 9.67875 21.8869C9.58265 21.851 9.48066 21.8336 9.37812 21.8356C8.75562 21.8356 7.91062 22.3462 7.3225 22.3462C7.205 22.3462 7.0975 22.3256 7.00375 22.2769C6.305 21.9081 6.44812 20.2806 5.87187 19.8588C5.6425 19.6906 5.29812 19.6556 4.92812 19.6556C4.65687 19.6556 4.37187 19.675 4.10875 19.675C3.7225 19.675 3.38312 19.6344 3.2025 19.4319C2.9175 19.1144 2.93687 18.3763 3.01562 17.7606C5.68562 20.7006 13.2912 21.8106 20.5006 21.8106C27.7106 21.8106 35.3156 20.7006 37.985 17.7606C38.0637 18.3775 38.0825 19.1169 37.7969 19.4356" fill="white"/>
<path d="M9.86063 10.2312L8.91438 9.32375L7.96813 10.2312L8.91438 11.1381L9.86063 10.2312ZM13.5794 9.6475L14.525 8.74L13.5794 7.8325L12.6331 8.74L13.5794 9.6475ZM17.1725 12.8831L16.2269 11.9756L15.2806 12.8831L16.2269 13.79L17.1725 12.8831ZM20.4431 9.62687L19.8131 9.02188L19.1819 9.62687L19.8131 10.2312L20.4431 9.62687ZM30.9044 11.9756L31.5356 12.58L32.1669 11.9756L31.5356 11.3712L30.9044 11.9756ZM35.9969 12.58L35.3663 11.9756L34.735 12.58L35.3663 13.185L35.9969 12.58ZM28.71 8.135L28.08 7.53L27.4488 8.135L28.08 8.74L28.71 8.135ZM9.63 7.37938L9 6.77437L8.36875 7.37938L9 7.98438L9.63 7.37938ZM6.265 10.2312L5.63438 9.62687L5.00375 10.2312L5.63438 10.8363L6.265 10.2312ZM8.91438 14.225L9.54563 14.83L10.1756 14.225L9.54563 13.62L8.91438 14.225ZM17.4875 4.96L16.8575 4.355L16.2269 4.96L16.8575 5.565L17.4875 4.96ZM23.4413 4.355L22.8113 3.75L22.18 4.355L22.8113 4.96L23.4413 4.355ZM13.5788 5.565L12.9488 4.96L12.3181 5.565L12.9488 6.16938L13.5788 5.565ZM31.4944 7.00063L30.8644 6.39625L30.2331 7.00063L30.8644 7.60563L31.4944 7.00063ZM23.7575 15.5081L24.7031 14.6006L23.7575 13.6931L22.8106 14.6006L23.7575 15.5081ZM23.2213 9.94938L22.2756 9.0425L21.3294 9.94938L22.2756 10.8569L23.2213 9.94938ZM26.7069 6.47188L25.7613 5.565L24.8144 6.47188L25.7613 7.37938L26.7069 6.47188ZM27.5419 10.3537L28.4875 11.2613L29.4338 10.3537L28.4875 9.44625L27.5419 10.3537ZM33.4281 9.0425L32.4819 8.135L31.5356 9.0425L32.4819 9.94938L33.4281 9.0425ZM29.4338 15.2625L30.38 14.3556L29.4338 13.4481L28.4875 14.3556L29.4338 15.2625ZM5.63375 12.7856L6.58063 13.6931L7.52625 12.7856L6.58063 11.8787L5.63375 12.7856Z" fill="white"/>
</svg>
