<svg width="15" height="19" viewBox="0 0 15 19" fill="none" xmlns="http://www.w3.org/2000/svg">
<path d="M7.88675e-08 7.6248V6.6873C-3.33835e-05 6.2772 0.0896183 5.87206 0.262672 5.50026C0.435726 5.12846 0.687994 4.799 1.0018 4.53498C1.3156 4.27095 1.68335 4.07875 2.07927 3.97184C2.47519 3.86492 2.8897 3.84588 3.29375 3.91605C3.55674 3.00367 4.10925 2.20154 4.86797 1.63063C5.62669 1.05971 6.55047 0.750977 7.5 0.750977C8.44953 0.750977 9.37331 1.05971 10.132 1.63063C10.8907 2.20154 11.4433 3.00367 11.7062 3.91605C12.1103 3.84588 12.5248 3.86492 12.9207 3.97184C13.3166 4.07875 13.6844 4.27095 13.9982 4.53498C14.312 4.799 14.5643 5.12846 14.7373 5.50026C14.9104 5.87206 15 6.2772 15 6.6873V7.6248C15.0003 9.50592 14.2936 11.3185 13.0202 12.703C11.7468 14.0876 9.99957 14.943 8.125 15.0998V16.9998H6.875V15.0998C5.00043 14.943 3.2532 14.0876 1.97978 12.703C0.706359 11.3185 -0.000272565 9.50592 7.88675e-08 7.6248ZM5.6075 6.99855H9.3925C9.33693 6.50326 9.41416 6.00209 9.61625 5.5465C9.81835 5.0909 10.138 4.69729 10.5425 4.40605C10.3806 3.72076 9.99209 3.11019 9.43989 2.67325C8.8877 2.2363 8.20416 1.99858 7.5 1.99858C6.79584 1.99858 6.1123 2.2363 5.56011 2.67325C5.00791 3.11019 4.6194 3.72076 4.4575 4.40605C4.86216 4.6974 5.18197 5.09121 5.38408 5.54705C5.58619 6.00288 5.6633 6.50431 5.6075 6.9998V6.99855ZM4.18375 6.99855C4.2301 6.79279 4.22957 6.57923 4.1822 6.37369C4.13483 6.16815 4.04182 5.97591 3.91008 5.81118C3.77834 5.64646 3.61123 5.51349 3.42112 5.42211C3.23102 5.33073 3.0228 5.28328 2.81187 5.28328C2.60095 5.28328 2.39273 5.33073 2.20263 5.42211C2.01252 5.51349 1.84541 5.64646 1.71367 5.81118C1.58193 5.97591 1.48892 6.16815 1.44155 6.37369C1.39418 6.57923 1.39365 6.79279 1.44 6.99855H4.18375ZM10.8162 6.99855H13.5588C13.6051 6.79279 13.6046 6.57923 13.5572 6.37369C13.5098 6.16815 13.4168 5.97591 13.2851 5.81118C13.1533 5.64646 12.9862 5.51349 12.7961 5.42211C12.606 5.33073 12.3978 5.28328 12.1869 5.28328C11.976 5.28328 11.7677 5.33073 11.5776 5.42211C11.3875 5.51349 11.2204 5.64646 11.0887 5.81118C10.9569 5.97591 10.8639 6.16815 10.8166 6.37369C10.7692 6.57923 10.7686 6.79279 10.815 6.99855H10.8162ZM7.5 13.8748C9.04961 13.8748 10.544 13.2991 11.6931 12.2595C12.8422 11.2199 13.5641 9.79042 13.7188 8.24855H1.28125C1.4359 9.79042 2.15783 11.2199 3.30694 12.2595C4.45605 13.2991 5.95039 13.8748 7.5 13.8748ZM5 17.0011H10C10.1658 17.0011 10.3247 17.0669 10.4419 17.1841C10.5592 17.3013 10.625 17.4603 10.625 17.6261C10.625 17.7918 10.5592 17.9508 10.4419 18.068C10.3247 18.1852 10.1658 18.2511 10 18.2511H5C4.83424 18.2511 4.67527 18.1852 4.55806 18.068C4.44085 17.9508 4.375 17.7918 4.375 17.6261C4.375 17.4603 4.44085 17.3013 4.55806 17.1841C4.67527 17.0669 4.83424 17.0011 5 17.0011Z" fill="white"/>
</svg>
