<svg width="17" height="17" viewBox="0 0 17 17" fill="none" xmlns="http://www.w3.org/2000/svg">
<path d="M8.5 16C12.6421 16 16 12.6421 16 8.5C16 4.35786 12.6421 1 8.5 1C4.35786 1 1 4.35786 1 8.5C1 12.6421 4.35786 16 8.5 16Z" stroke="white" stroke-width="2" stroke-linecap="round" stroke-linejoin="round"/>
<path d="M6 6.83333H6.00833M11 6.83333H11.0083M6.41667 11C6.68823 11.2772 7.01237 11.4974 7.37011 11.6477C7.72784 11.798 8.11197 11.8754 8.5 11.8754C8.88803 11.8754 9.27216 11.798 9.62989 11.6477C9.98763 11.4974 10.3118 11.2772 10.5833 11M8.5 1C8.05797 1 7.63405 1.17559 7.32149 1.48816C7.00893 1.80072 6.83333 2.22464 6.83333 2.66667C6.83333 3.10869 7.00893 3.53262 7.32149 3.84518C7.63405 4.15774 8.05797 4.33333 8.5 4.33333" stroke="white" stroke-width="2" stroke-linecap="round" stroke-linejoin="round"/>
</svg>
