<svg width="17" height="21" viewBox="0 0 17 21" fill="none" xmlns="http://www.w3.org/2000/svg">
<path d="M4.04877 9.46004C4.31399 9.46004 4.56834 9.35468 4.75588 9.16714C4.94341 8.97961 5.04877 8.72526 5.04877 8.46004C5.04877 8.19482 4.94341 7.94047 4.75588 7.75293C4.56834 7.56539 4.31399 7.46004 4.04877 7.46004C3.78355 7.46004 3.5292 7.56539 3.34166 7.75293C3.15413 7.94047 3.04877 8.19482 3.04877 8.46004C3.04877 8.72526 3.15413 8.97961 3.34166 9.16714C3.5292 9.35468 3.78355 9.46004 4.04877 9.46004ZM9.04877 11.458C9.04877 11.7233 8.94341 11.9776 8.75588 12.1651C8.56834 12.3527 8.31399 12.458 8.04877 12.458C7.78355 12.458 7.5292 12.3527 7.34166 12.1651C7.15413 11.9776 7.04877 11.7233 7.04877 11.458C7.04877 11.1928 7.15413 10.9385 7.34166 10.7509C7.5292 10.5634 7.78355 10.458 8.04877 10.458C8.31399 10.458 8.56834 10.5634 8.75588 10.7509C8.94341 10.9385 9.04877 11.1928 9.04877 11.458ZM4.04877 15.456C4.31399 15.456 4.56834 15.3507 4.75588 15.1631C4.94341 14.9756 5.04877 14.7213 5.04877 14.456C5.04877 14.1908 4.94341 13.9365 4.75588 13.7489C4.56834 13.5614 4.31399 13.456 4.04877 13.456C3.78355 13.456 3.5292 13.5614 3.34166 13.7489C3.15413 13.9365 3.04877 14.1908 3.04877 14.456C3.04877 14.7213 3.15413 14.9756 3.34166 15.1631C3.5292 15.3507 3.78355 15.456 4.04877 15.456ZM0.0487698 3.13004C0.0487698 1.63404 1.27877 0.326037 2.86877 0.483037C8.04602 0.995936 12.8426 3.43205 16.3108 7.31004C17.3808 8.50304 17.0478 10.274 15.8318 11.155C14.0702 12.4319 12.3092 13.7096 10.5488 14.988C10.5468 15.425 10.5468 15.709 10.5478 16.079V16.708C10.5479 16.9638 10.492 17.2166 10.3839 17.4484C10.2758 17.6803 10.1182 17.8856 9.92219 18.05C9.72618 18.2143 9.49652 18.3337 9.24938 18.3997C9.00224 18.4657 8.74363 18.4768 8.49177 18.432C8.28777 19.258 7.55977 19.959 6.54777 19.959C5.84777 19.959 5.28577 19.624 4.93877 19.144L3.61377 20.1C2.12577 21.175 0.0437696 20.112 0.0447696 18.275L0.0487698 3.13004ZM2.72077 1.97604C2.11177 1.91604 1.54677 2.41904 1.54677 3.13204V3.65204C4.05716 3.75698 6.51571 4.40003 8.75598 5.53768C10.9963 6.67533 12.966 8.28101 14.5318 10.246L14.9508 9.94204C15.5288 9.52204 15.6028 8.76904 15.1928 8.31204C11.9754 4.71348 7.52531 2.45257 2.72177 1.97604H2.72077ZM1.54377 18.276C1.54377 18.889 2.23777 19.244 2.73377 18.886L4.86177 17.351C4.97389 17.2704 5.10611 17.2222 5.24384 17.2119C5.38158 17.2016 5.51948 17.2296 5.64235 17.2927C5.76522 17.3558 5.86828 17.4515 5.94017 17.5695C6.01206 17.6874 6.04999 17.8229 6.04977 17.961C6.04977 18.231 6.25877 18.461 6.54677 18.461C6.61271 18.4617 6.67812 18.4492 6.7392 18.4244C6.80027 18.3995 6.85579 18.3627 6.90251 18.3162C6.94923 18.2697 6.98622 18.2143 7.01134 18.1533C7.03645 18.0923 7.04917 18.027 7.04877 17.961V16.706C7.04877 16.5071 7.12779 16.3164 7.26844 16.1757C7.40909 16.0351 7.59986 15.956 7.79877 15.956C7.99768 15.956 8.18845 16.0351 8.3291 16.1757C8.46975 16.3164 8.54877 16.5071 8.54877 16.706C8.54877 16.847 8.65977 16.957 8.79677 16.957C8.86307 16.957 8.92666 16.9307 8.97355 16.8838C9.02043 16.8369 9.04677 16.7733 9.04677 16.707V16.085C9.04577 15.615 9.04477 15.277 9.05177 14.596C9.0527 14.4789 9.08104 14.3637 9.13452 14.2595C9.18801 14.1553 9.26515 14.0651 9.35977 13.996C10.2618 13.34 11.8558 12.184 13.3158 11.126C11.89 9.35229 10.1031 7.90225 8.07374 6.87225C6.04442 5.84224 3.81915 5.25585 1.54577 5.15204V18.276H1.54377Z" fill="white"/>
</svg>
