<svg width="19" height="16" viewBox="0 0 19 16" fill="none" xmlns="http://www.w3.org/2000/svg">
<path d="M3.76251 10.3594V12.7556C4.49451 13.6533 5.41729 14.3765 6.4638 14.8729C7.51032 15.3692 8.65426 15.6261 9.81251 15.625C12.515 15.625 14.8975 14.2525 16.3 12.1669V8.80813C15.82 11.96 13.0981 14.375 9.81251 14.375C7.09126 14.375 4.75689 12.7188 3.76251 10.3594ZM15.1438 3.98501V2.90876C15.1419 2.67139 15.1808 2.43547 15.2588 2.21126C13.8019 0.790972 11.8471 -0.00272221 9.81251 8.57885e-06C7.9918 -0.00269386 6.22778 0.633157 4.82751 1.79688L4.83064 1.83501L4.83126 1.85188V3.53938C5.44676 2.82044 6.2108 2.24349 7.07074 1.84826C7.93069 1.45303 8.86609 1.24892 9.81251 1.25001C12.0088 1.25001 13.9525 2.32876 15.1438 3.98501Z" fill="white"/>
<path d="M14.8125 7.81274C14.8125 9.13883 14.2857 10.4106 13.348 11.3483C12.4104 12.286 11.1386 12.8127 9.8125 12.8127C8.48642 12.8127 7.21465 12.286 6.27697 11.3483C5.33928 10.4106 4.8125 9.13883 4.8125 7.81274C4.8125 6.48666 5.33928 5.21489 6.27697 4.27721C7.21465 3.33953 8.48642 2.81274 9.8125 2.81274C11.1386 2.81274 12.4104 3.33953 13.348 4.27721C14.2857 5.21489 14.8125 6.48666 14.8125 7.81274ZM9.8125 12.1877C10.387 12.1877 10.9559 12.0746 11.4867 11.8547C12.0175 11.6349 12.4998 11.3126 12.9061 10.9063C13.3123 10.5001 13.6346 10.0178 13.8545 9.48698C14.0743 8.95618 14.1875 8.38728 14.1875 7.81274C14.1875 7.23821 14.0743 6.6693 13.8545 6.1385C13.6346 5.60771 13.3123 5.12541 12.9061 4.71915C12.4998 4.3129 12.0175 3.99064 11.4867 3.77077C10.9559 3.55091 10.387 3.43774 9.8125 3.43774C8.65218 3.43774 7.53938 3.89868 6.71891 4.71915C5.89844 5.53962 5.4375 6.65242 5.4375 7.81274C5.4375 8.97307 5.89844 10.0859 6.71891 10.9063C7.53938 11.7268 8.65218 12.1877 9.8125 12.1877ZM18.2437 2.46274C18.2437 1.90024 17.7875 1.44399 17.225 1.44399C16.4125 1.44399 15.7625 2.10024 15.7688 2.90649V6.37524C15.7688 7.15837 16.2225 7.85962 16.925 8.17712V13.5627C16.925 13.8877 17.1875 14.1502 17.5125 14.1502H17.6562C17.9812 14.1502 18.2437 13.8877 18.2437 13.5627V2.46274ZM3.7625 1.44399C3.64978 1.44399 3.54168 1.48877 3.46198 1.56847C3.38228 1.64818 3.3375 1.75628 3.3375 1.86899V3.55025C3.3375 3.67525 3.2375 3.76899 3.11875 3.76899C2.99375 3.76899 2.9 3.66899 2.9 3.55025V1.88774C2.9 1.65649 2.71875 1.45024 2.4875 1.44399C2.24375 1.43774 2.04375 1.63149 2.04375 1.86899V3.55025C2.04375 3.67525 1.94375 3.76899 1.825 3.76899C1.7 3.76899 1.60625 3.66899 1.60625 3.55025V1.88774C1.60625 1.65649 1.425 1.45024 1.19375 1.44399C0.95 1.43774 0.75 1.63149 0.75 1.86899V4.73149C0.75 5.29524 1.02312 5.79837 1.44313 6.11212C1.81875 6.324 1.81875 7.29399 1.81875 7.29399V13.5565C1.81875 13.8815 2.08125 14.144 2.40625 14.144H2.55C2.875 14.144 3.1375 13.8815 3.1375 13.5565V7.29399C3.1375 7.29399 3.1375 6.36212 3.51312 6.11212C3.72813 5.95181 3.90275 5.74352 4.02308 5.50384C4.14341 5.26415 4.20613 4.99969 4.20625 4.73149V1.86899C4.19992 1.7551 4.15058 1.64787 4.0682 1.56897C3.98582 1.49007 3.87656 1.4454 3.7625 1.44399Z" fill="white"/>
</svg>
