<svg width="21" height="21" viewBox="0 0 21 21" fill="none" xmlns="http://www.w3.org/2000/svg">
<path d="M7.423 5.33286C7.73076 4.76394 8.19016 4.29143 8.7502 3.96778C9.31024 3.64414 9.94901 3.48202 10.5956 3.49942C11.2422 3.51683 11.8713 3.71307 12.4131 4.06637C12.955 4.41967 13.3883 4.91621 13.665 5.50086C12.9366 5.51739 12.2288 5.74569 11.6281 6.15786C11.0273 6.57003 10.5596 7.14824 10.282 7.82186C10.0262 7.39539 9.71964 7.00151 9.369 6.64886C8.80556 6.09575 8.14615 5.64981 7.423 5.33286ZM17.492 9.49986C17.549 8.6464 17.3126 7.79909 16.8221 7.09834C16.3316 6.39759 15.6164 5.88547 14.795 5.64686C14.5255 4.79297 14.0074 4.03884 13.3071 3.48088C12.6068 2.92292 11.756 2.58648 10.8634 2.51455C9.9709 2.44262 9.07719 2.63848 8.29655 3.0771C7.51591 3.51571 6.88379 4.17715 6.481 4.97686C6.08318 4.8532 5.67807 4.75435 5.268 4.68086C4.57439 4.55603 3.87074 4.49544 3.166 4.49986C3.10464 4.50098 3.0433 4.50298 2.982 4.50586H2.978C2.85575 4.51322 2.74043 4.5651 2.65383 4.6517C2.56724 4.73829 2.51536 4.85361 2.508 4.97586V4.97686C2.49973 5.20111 2.49939 5.42559 2.507 5.64986C2.52 6.05886 2.563 6.62686 2.679 7.26886C2.802 7.95086 3.01 8.73286 3.364 9.49886H3C2.86739 9.49886 2.74021 9.55154 2.64645 9.64531C2.55268 9.73908 2.5 9.86625 2.5 9.99886V10.4989C2.5 12.6206 3.34285 14.6554 4.84315 16.1557C6.34344 17.656 8.37827 18.4989 10.5 18.4989C12.6217 18.4989 14.6566 17.656 16.1569 16.1557C17.6571 14.6554 18.5 12.6206 18.5 10.4989V9.99886C18.5 9.86625 18.4473 9.73908 18.3536 9.64531C18.2598 9.55154 18.1326 9.49886 18 9.49886H17.492V9.49986ZM4.484 9.49986C4.05 8.71786 3.802 7.86086 3.664 7.09186C3.56956 6.56676 3.5154 6.03521 3.502 5.50186L3.616 5.50586C3.988 5.51886 4.506 5.55886 5.09 5.66486C6.27 5.87786 7.656 6.34986 8.662 7.35586C9.278 7.97186 9.695 8.73186 9.975 9.49986H8.208L6.354 7.64586C6.30751 7.59944 6.25234 7.56263 6.19162 7.53753C6.13091 7.51243 6.06584 7.49954 6.00015 7.49958C5.93445 7.49963 5.8694 7.51262 5.80873 7.5378C5.74805 7.56298 5.69292 7.59987 5.6465 7.64636C5.60008 7.69285 5.56327 7.74803 5.53817 7.80874C5.51307 7.86945 5.50018 7.93452 5.50022 8.00021C5.50027 8.06591 5.51325 8.13096 5.53844 8.19164C5.56362 8.25232 5.60051 8.30744 5.647 8.35386L6.794 9.49986H4.484ZM11.032 9.49986C11.0232 9.47281 11.0142 9.4458 11.005 9.41886C10.9832 9.0416 11.0395 8.6639 11.1702 8.30933C11.3009 7.95476 11.5033 7.63094 11.7647 7.35806C12.0261 7.08519 12.341 6.86913 12.6896 6.72335C13.0382 6.57758 13.4132 6.50522 13.791 6.5108C14.1689 6.51638 14.5415 6.59978 14.8857 6.75578C15.2299 6.91179 15.5383 7.13706 15.7915 7.41753C16.0448 7.698 16.2375 8.02766 16.3577 8.38593C16.4778 8.74421 16.5229 9.1234 16.49 9.49986H11.033H11.032ZM3.5 10.4999H17.5C17.5 11.1949 17.399 11.8659 17.21 12.4999H3.79C3.59712 11.8507 3.49943 11.177 3.5 10.4999ZM10.5 17.4999C9.1751 17.5001 7.87733 17.1244 6.75751 16.4163C5.63769 15.7083 4.74181 14.6969 4.174 13.4999H16.826C16.2582 14.6969 15.3623 15.7083 14.2425 16.4163C13.1227 17.1244 11.8249 17.5001 10.5 17.4999Z" fill="white"/>
</svg>
