<svg width="21" height="21" viewBox="0 0 21 21" fill="none" xmlns="http://www.w3.org/2000/svg">
<g clip-path="url(#clip0_348_231)">
<path d="M12.1797 7.15172H13V8.13386H12.1797V7.15172ZM8 7.15172H8.82031V8.13386H8V7.15172ZM11.3203 9.07136H12.1797V10.0089H11.3203V9.07136ZM13.8203 9.07136H14.6797V10.0089H13.8203V9.07136ZM6.32031 9.07136H7.17969V10.0089H6.32031V9.07136ZM8.82031 9.07136H9.67969V10.0089H8.82031V9.07136ZM20.0703 9.24993C20.2526 8.53564 20.1745 7.80648 19.8359 7.06243C19.4974 6.43743 19.0026 5.991 18.3516 5.72314L17.1797 5.45529C17.1016 4.71124 16.7891 4.07136 16.2422 3.53564C15.5911 2.91064 14.875 2.76184 14.0938 3.08922L12.8438 3.35707L12.9219 3.62493C12.0885 3.44636 11.2812 3.35707 10.5 3.35707C9.5625 3.35707 8.78125 3.491 8.15625 3.75886V3.35707L6.90625 3.08922C6.22917 2.88088 5.51302 3.02969 4.75781 3.53564C4.21094 4.07136 3.89844 4.71124 3.82031 5.45529L2.76562 5.72314C2.08854 5.93148 1.56771 6.37047 1.20312 7.04011C0.838542 7.70975 0.747396 8.4166 0.929688 9.16064L1.16406 10.4999C0.721354 11.869 0.5 13.2975 0.5 14.7856C0.5 15.2916 0.66276 15.738 0.988281 16.1249C1.3138 16.5118 1.71094 16.7053 2.17969 16.7053H18.8203C19.2891 16.7053 19.6862 16.5118 20.0117 16.1249C20.3372 15.738 20.5 15.2916 20.5 14.7856C20.5 13.2083 20.2526 11.8095 19.7578 10.5892L20.0703 9.24993ZM2.17969 14.7856C2.17969 13.2678 2.45312 11.9285 3 10.7678C3.67708 9.13088 4.6862 7.80648 6.02734 6.79457C7.36849 5.78267 8.85938 5.27672 10.5 5.27672C12.1146 5.27672 13.599 5.77523 14.9531 6.77225C16.3073 7.76928 17.3229 9.07136 18 10.6785C18.5469 12.0178 18.8203 13.3571 18.8203 14.6964H2.17969V14.7856Z" fill="white"/>
</g>
<defs>
<clipPath id="clip0_348_231">
<rect width="20" height="20" fill="white" transform="translate(0.5 0.5)"/>
</clipPath>
</defs>
</svg>
