<svg width="19" height="17" viewBox="0 0 19 17" fill="none" xmlns="http://www.w3.org/2000/svg">
<path d="M2.625 9.4998C2.45924 9.4998 2.30027 9.56565 2.18306 9.68286C2.06585 9.80007 2 9.95904 2 10.1248V11.3748C1.99971 11.5343 2.06039 11.6878 2.16961 11.804C2.27883 11.9202 2.42832 11.9902 2.5875 11.9998H16.375C16.5408 11.9998 16.6997 11.934 16.8169 11.8167C16.9342 11.6995 17 11.5406 17 11.3748V10.1248C17 9.95904 16.9342 9.80007 16.8169 9.68286C16.6997 9.56565 16.5408 9.4998 16.375 9.4998H2.625ZM17 8.35605C17.3657 8.48535 17.6823 8.7249 17.9062 9.04168C18.1301 9.35847 18.2502 9.73689 18.25 10.1248V11.3748C18.25 11.7189 18.1553 12.0564 17.9763 12.3503C17.7973 12.6442 17.5408 12.8832 17.235 13.041L16.2062 15.781C16.0722 16.1383 15.8324 16.4461 15.5188 16.6634C15.2052 16.8807 14.8328 16.9972 14.4513 16.9973H4.54875C4.16722 16.9972 3.7948 16.8807 3.48121 16.6634C3.16762 16.4461 2.92779 16.1383 2.79375 15.781L1.76625 13.0423C1.46003 12.8845 1.20318 12.6454 1.02391 12.3513C0.84464 12.0571 0.749869 11.7193 0.75 11.3748V10.1248C0.749797 9.73689 0.86991 9.35847 1.09379 9.04168C1.31766 8.7249 1.63428 8.48535 2 8.35605V8.2498C2.01409 6.26067 2.81778 4.35862 4.23426 2.96206C5.65075 1.5655 7.564 0.788833 9.55312 0.802923C11.5422 0.817012 13.4443 1.6207 14.8409 3.03719C16.2374 4.45367 17.0141 6.36692 17 8.35605ZM15.75 8.2498C15.75 6.59219 15.0915 5.00248 13.9194 3.83038C12.7473 2.65828 11.1576 1.9998 9.5 1.9998C7.8424 1.9998 6.25269 2.65828 5.08058 3.83038C3.90848 5.00248 3.25 6.59219 3.25 8.2498H15.75ZM9.5 13.2498H3.17875L3.96375 15.3423C4.0085 15.4613 4.08847 15.5638 4.19299 15.6362C4.29752 15.7085 4.42162 15.7473 4.54875 15.7473H14.4513C14.5784 15.7473 14.7025 15.7085 14.807 15.6362C14.9115 15.5638 14.9915 15.4613 15.0363 15.3423L15.8212 13.2498H9.5Z" fill="white"/>
</svg>
